/* XPM */
static char *_6ee6db2c2e4453c85f1302cd349ffba9zN1sPCV1AITOVQb[] = {
/* columns rows colors chars-per-pixel */
"64 64 143 2 ",
"   c #4C5735",
".  c #51573D",
"X  c #555B45",
"o  c #55554E",
"O  c #59564F",
"+  c #565B4C",
"@  c #5A5D4C",
"#  c #565651",
"$  c #595752",
"%  c #575852",
"&  c #5C5B54",
"*  c #5E5D59",
"=  c #615D56",
"-  c #615E59",
";  c #596243",
":  c #5D634C",
">  c #5E694E",
",  c #5E6353",
"<  c #5E6850",
"1  c #5E605B",
"2  c #61634E",
"3  c #616A4B",
"4  c #66704E",
"5  c #626356",
"6  c #656A53",
"7  c #64635C",
"8  c #69655E",
"9  c #656A5B",
"0  c #6B6A5E",
"q  c #6E7355",
"w  c #6A7857",
"e  c #6B715C",
"r  c #615F60",
"t  c #666561",
"y  c #696762",
"u  c #676963",
"i  c #6C6B64",
"p  c #696768",
"a  c #67686A",
"s  c #6D6D69",
"d  c #716D66",
"f  c #716F69",
"g  c #6D7164",
"h  c #6F7865",
"j  c #6F706A",
"k  c #727266",
"l  c #727A65",
"z  c #73726C",
"x  c #79766E",
"c  c #76796C",
"v  c #7B7A6F",
"b  c #6F7170",
"n  c #767571",
"m  c #797772",
"M  c #777873",
"N  c #7E7A75",
"B  c #7B7C74",
"V  c #7A7C77",
"C  c #7B7C77",
"Z  c #7F7C75",
"A  c #7D7C77",
"S  c #7F7C77",
"D  c #7E7E76",
"F  c #7C7B74",
"G  c #747379",
"H  c #767779",
"J  c #7A7A78",
"K  c #7B7D78",
"L  c #7D7C78",
"P  c #7C7D78",
"I  c #7C7E79",
"U  c #7D7E79",
"Y  c #7F7E79",
"T  c #7D7F7A",
"R  c #7E7F7A",
"E  c #7C7C7C",
"W  c #7E7E7C",
"Q  c #7D7E7A",
"!  c #817D72",
"~  c #807C73",
"^  c #827E75",
"/  c #817C76",
"(  c #807D76",
")  c #827D77",
"_  c #817E77",
"`  c #827F76",
"'  c #837F76",
"]  c #817D76",
"[  c #807D78",
"{  c #837E78",
"}  c #827F78",
"|  c #807F7B",
" . c #857E78",
".. c #847F79",
"X. c #827E7D",
"o. c #817F7A",
"O. c #7E8074",
"+. c #7F807B",
"@. c #7F807B",
"#. c #80836E",
"$. c #838077",
"%. c #848077",
"&. c #838177",
"*. c #838079",
"=. c #81807B",
"-. c #83807B",
";. c #83837B",
":. c #858178",
">. c #858279",
",. c #85807A",
"<. c #85827B",
"1. c #80817C",
"2. c #82817C",
"3. c #81827D",
"4. c #81817F",
"5. c #80827F",
"6. c #82837E",
"7. c #84817C",
"8. c #85827D",
"9. c #86837C",
"0. c #84807F",
"q. c #84837E",
"w. c #87847D",
"e. c #85847F",
"r. c #83827C",
"t. c #89857C",
"y. c #8A857F",
"u. c #88847C",
"i. c #7D7E81",
"p. c #817F80",
"a. c #807F84",
"s. c #7F8180",
"d. c #848580",
"f. c #868580",
"g. c #858482",
"h. c #828284",
"j. c #858084",
"k. c #848285",
"l. c #848481",
"z. c #888782",
"x. c #898582",
"c. c #878883",
"v. c #8A8981",
/* pixels */
"N ) y.m i ) N ,.9.) ,.%.z 0 i x i x v Z ) } f i } z - & 7 y y y z 2.U Z z y x $...~ v #.k 7 z k.E J C U z 7 = & - 8 8 z ) ) ..) ",
") N N d y m N 9.,.,.t.) d 8 f x z i i m Z f d x *.N y 7 7 i z i u z i 7 - = 8 i k q q 4 3 : 5 j E 2.U z y - & = 8 d i k ~ %.,.~ ",
"i i y i y d d z x N ) x 0 i x m N z i i d 7 m $.9.2.n t * 7 s i 1 u u 7 t z z s 6 ; ;   ; > < 9 z M z 7 & & = 7 8 d d 0 k x N x ",
"= i d x N z z f 0 0 0 8 7 i m m N Z x d 8 8 ) ,.2.w.Z s - 7 i s M M J t i 2.2.U C k 8 + g M M n 7 t t & $ & 7 8 0 k 0 8 8 8 i 7 ",
"7 N ) ,.w.) *.Z 0 5 & 5 7 i z z m N x Z i 8 v ) *.d.*.m y 7 z U 2.l.2.i u U +.U k.p.u 7 n E k.G 7 - i d 7 - y 8 0 0 = 5 d z i 7 ",
"7 N ,.,.9.) w.Z l 5 = 5 8 0 i y x N x N d i z x *.z.2.U z i n d.K U 2.j i U U C X.9.y s N } d.n t y m } i 7 8 0 0 0 8 d v ) ) x ",
"7 z ,.,.,.) *.m 0 5 5 0 0 0 i y d N x f z m x i m w.2.2.C i i J 2.J n i t z n z n n t n m N n y i z ) } x y 7 8 i m N ) ) ) ) N ",
"y d Z ) } Z Z z @ X 5 0 i i k z 7 d z d ) w.N y y Z } 2.2.s t s s 7 7 7 7 i t * t 7 * J J U s 7 n } N N ) d = = y N ,.,.%.,.,.N ",
"7 8 d 0 7 i 0 7 O 7 7 y i z x x 5 0 0 z ) 9.X.m 7 i m } J i 7 7 y * u M x n i 7 7 - 7 y z z y f U J N J i 8 i i y d Z 9.} Z N z ",
"- 7 d i y d i i & 7 i z k z z z x x d z x Z 9.*.z i y i i u s J m s s +.*.+.n i x n n s y - - z U m z f 8 d N ~ i i N ) x z i 8 ",
"y z ) *.Z Z N N d = 8 d z x z z ) ) x f y y x } z 7 & t z J U d.U n i U 6.2.n t m X.l.} J y & 7 z z i 8 f N ) u.N 8 i i i x N m ",
"i z 9.v.*.*.Z / f 7 f m z d d N ) ) N x y = 7 i 7 & & i } d.6.2.2.M u U d.2.n t N } L } 2.z 7 y d y y f ) u.{ ~ ) 8 i z m ,.,.*.",
"f z ,.w.*.*.N N i 8 Z ,.N x i d x m N *.m 8 = & & 5 8 i m 2.6.2.2.M t C d.+.n t N } } } N i i Z N 8 i / } ,.u.x z 8 z ,.9.w.,.,.",
"f z N Z Z Z m m i d Z ) *.y.z - 7 i N w.N 8 = & , 7 i i z U 6.2.} z i J } N z t z m N U x i z y.,.m i z ) N k x z i z } w.,.9.w.",
"8 8 d d i f i 8 7 f N m N ) z 7 $ 7 d x i & & - 7 y i i z M J n i & & y y y 7 * 8 9 7 7 7 8 m 9.) t.d 7 x x d m ) x d N ,.m x d ",
"7 8 z z z z y - 7 i f z N m i $ 5 7 5 7 7 & & - 7 i z i y 7 7 7 i & & i t i y y , & X $ = i / / ) ~ x 8 5 x y.,.*.) y f x y i 8 ",
"z m v.*.*.*.x z m x i i 5 6 2 @ 7 7 i 5 5 0 7 - 7 i z i y 7 x U Z y i 2.2.N } } c + o & 5 5 8 0 w 6 6 c z d y.Z *.x i d z x n J ",
"z m w.*.*.*.z i Z *.$.k & 5 X @ y i y 8 k x 7 = i i i y y m *.*.Z s z 9.9.U *.) B 7 $ - 8 8 7 5 X X g Z ~ i x k 7 8 d Z 9.9.U U ",
"i x *.*.*.Z z i Z ) N i 0 v 0 0 y 8 i k Z ,.z 7 7 7 z i 7 U 2.2.2.z z N Z Z *.,.v 7 & - y i 7 - X @ Z ~ ) k 8 8 y y f N ..) Z *.",
"i z } } } N f i ) y.,.z x ,.N x i 8 z ) *.) z - & i } N i n U } U i i s s z x x 8 $ & 7 i f y i i i m ..) x 5 5 i f z / ..Z Z *.",
"y z n n n z i t d m x i N m } N y d m ,.*.z i y f J 9.2.z t z z 7 & 7 t 7 & $ & , @ 5 9 i i i m } z y N ,.Z 8 5 i i i z x z z z ",
"7 i i 7 t 7 * & 7 8 7 7 z i N d 7 ) Z N N i 7 i N } U n i & i i 7 7 n L n i 7 z k g 0 5 5 9 z w.} N i i N ) x 7 0 0 = = 7 7 t 7 ",
"M Z M z n M z 7 z Z Z x i 7 y 7 8 $.) z d y y u z m z y u i z n i 7 n } N z i U *.Z k & + 7 i N J w.J y y x x - > 6 : 5 y y s 7 ",
"J +.J m +.*.n 7 J *.Z Z x m y & & i x d 7 z 6.j * t 7 & t 2.U U x y z 2.2.n i J N } z & $ 7 7 y z U Z x 7 y 7 7 : 6 5 8 y f n i ",
"J J C U U 2.j t U } 9.} m } f 7 5 9 9 9 j U U n = $ = 7 z 2.U U J p f X.L s y B ) N k & & 7 7 7 5 i m J 7 $ i Z h > ; 6 i s s i ",
"J U U U U +.s 7 U 2.*.} } } i i $.c 9 7 j +.m u = O & 7 f } U N J t - t y y e l x N d & = i 7 8 z z y 7 7 z *.Z c 6 . : i z z i ",
"J U C J J U s y U d.} U } m y N } w.J y 7 t 7 = & & 8 y i z s i u t s z i 9 < > 7 y & o = i 7 i w.N i y m 9.w.N *.c @ 5 i s m i ",
"p s s i i z i t J 2.} Z m y y } } 9.2.J i & $ & = 7 i i i i t * i n 9.*.c 8 < e z z 7 o 7 7 7 x y.x 7 i } *.Z Z X.*.i 7 t s z i ",
"* t 7 * - y * * t i f z i t z 9.z.} } } z * $ 7 y y i i z m m i i ) } N Z s 7 C +.U s * x i i i i y - y Z *.) } E X.m - u n s y ",
"u z j s s f 7 t s t 7 7 - 7 n Z X.z.9.f 7 7 7 * t s z n N 9.9.x 7 x N N l.f r J K U j t +.U z & $ z z i f m } *.l.X.J 7 * s t 7 ",
"M @.2.+.} U s f c.U z i 7 $ t t m 9.N 7 t J m 7 - z U 2.} } } z 7 z J Z } i - M E U y i J U z 7 y U U s 7 7 z +.U n z t t i t * ",
"M @.2.2.2.U s z d.d.w.U z * 7 7 7 y y i n U U x & f N 2.} } } z 1 7 i z j 7 O 8 t u * n Z J u 7 J +.+.U z 1 y J x t t n 2.w.n - ",
"b M d.J E U y z l.x.l.z.i t M n y 7 & z 9.X.X.X.s 7 z U x f y - o 7 y 7 7 o 7 i i i & 7 7 t & & s U @.E E p * 7 - & J d.U @.2.t ",
"u M g.E E m t n l.} N Z i z 2.d.J f 7 t z J 2.w.n 7 * 7 7 7 & & x Z C m z 7 z +.U U x z 7 # & 7 * j 2.2.U s 1 t i 7 i 2.6.g.E u ",
"u M J n z i 7 z N U U x t z U X.w.2.s - 7 k v k 7 7 & $ & 7 7 t x *.*.w.Z 7 j Z U U C C i * z C t 7 z B c y t J U z u K 2.2.M s ",
"* t 7 * & * * t u s z y 7 } } *.l.J i 7 , 5 9 < 7 z m y * 7 i i k *.+.6.m 7 z +.+.2.+.U t 1 J U U i , 9 9 8 z g.d.E t j l.2.M s ",
"s n z s 7 s J z i 7 7 & 7 N N *.d.s t m B i 9 e J 2.6.n 7 7 i 7 i *.6.w.m 7 i J M 2.+.U 1 u +.6.l.M & + , g 6.@.U 2.i 7 z s i & ",
"N 9.2.m 7 z 9.N U z z y $ 7 7 i i 7 i U 6.c j 9 U U 2.U i 7 i s y Z *.*.n t 1 i z n z z * z 6.6.2.n & & 7 i 2.2.+.U s * t 7 t # ",
"N y.9.n - z U } X.U } z & 7 7 7 $ 7 n 2.l.6.C 8 s U 2.U s * 7 y 7 i i i t * o t t * * * $ n 2.2.J t & 7 u i z 2.+.s 7 y x ,.N 7 ",
"i N N x y m m *.} X.} i * m M 7 & 8 n l.l.l.l.n 1 M M s t $ $ & s x m Z U n 7 M C j f - o 7 i j s & * t s z t n i 7 d ,./ ..x 8 ",
"7 x m x 7 x n m U U n 7 z U U M y 1 7 n l.2.@.s.s 7 t i n n 7 & E 2.l.l.2.M 7 J +.U U 7 y z 7 7 $ # 1 i u j g , 7 7 Z t.t.) N i ",
"- 7 8 8 O 7 t u i s t 7 U 2.C 6.x 7 # 7 s K @.M t 7 z U +.6.M 1 M U l.l.6.J t J d.2.J 7 x w.) x t 7 7 s i u u i U i d ) { N z i ",
"& & & i 7 i u p 7 7 7 7 z Z 6.U m $ $ 1 & u z t 7 n 2.d.d.6.M 7 n E l.l.6.M 7 m K C j t C y.y.) U z t i s z z K U n i x z d 7 & ",
"- 7 y J n n n n 7 y m x 8 y m n 7 & & y 7 & & 7 x d.2.U 6.+.n 7 z E @.@.U n t m 2.J i i Z ) %.t.z.z 7 7 u J 2.l.U J 7 7 7 & & & ",
"t y y m m m J M y x ) *.k & 7 7 O 7 & 7 z 7 $ i w.2.+.l.2.2.J & & u u p i u * t j i 7 z 9.9.t.u.,.z 8 y t n E J J z * 7 f $ & 7 ",
"7 y y n U 2.l.J y x Z ,.i 7 y & o & 7 8 t y i s C U 6.c.2.n s * % 1 7 u u t * & & 0 7 d Z $.) ) m k v O.i y i s t s z N 9.y = & ",
"7 y t z J N 2.n 7 m w.,.7 i w.n 0 & 7 i 1 j +.j y n U M s t 7 i M M M E C U z t k ) x z d d d x s m O.&.k u * 7 i J *.9.9.z - & ",
"7 8 - 7 t 7 i 7 & z d z y x d.w.Z y & * s U l.J t 7 s u & t z U l.E K l.U 2.M 7 x %.) %.N z = 7 z 2.Z v O.c 7 7 +.+.Z 2.*.z & & ",
"& 7 i z z z i 7 t i t & 7 U 9.2.*.n 7 t C 2.@.l.J & & t * s s.E *.J s.i.l.} z i Z 9.} ) ) N x i i $.O.v O.Z z 7 z U 2.Z z 7 & & ",
"7 z } 2.} N z t } } m z 7 f n 2.C s & z d.U 2.K s * t z a u M s.K J i.i.U C z s *.) ) ,.{ ) %.m 8 k k B B c i * t z z y y z m m ",
"7 i N J n n s i J 2.2.Z 7 z y t i 7 1 z J U E s 1 u M @.n t s l.i.i.i.U O.B z z U N ) t.,.) ) i $ 7 i m m j s i 7 t i n U } } U ",
"t i N N m n y i N 2.*.m y *.Z z & 7 f t t M z 7 t M E E J p u M E H n j k i 7 t } *.) ) ) %.N 8 t t 7 t i z J 2.s 7 u U v.d.2.*.",
"8 7 z k z j 8 i } N N z i Z ,.x 7 z } i * t * * M s.E J E n t t a p 7 , @ X + & s n z v ,.) z i J n 7 * z U 2.E C s i J 2.2.N x ",
"& & 7 5 5 5 & 8 z f x d x ,.*.i s U } N i # * 7 J E l.E J p 7 t i j j 8 @ @ 9 j t y 7 d m f i n U U s t z +.E M U s t s z i 7 - ",
"= i v v x i 5 & & 7 8 = y N m y n } U U i & s s s n U J u 7 i z M +.*.M 8 0 @.g.U n i 7 & - n d.2.2.m i 7 i J K z t * & & $ & 7 ",
"- m d.d.*.+.B i 8 d z z y i t u J U 2.z * s 2.n t i z t # t K U U 2.X.n 7 i g.k.d.2.N i o & m J d.U } J 7 1 z p i z i & & - 7 t ",
"y z *.w.*.,.) f i *.N N N f i = 7 z z 7 i M 2.M z t & t u t n } @.U *.J 7 s E l.2.U n 7 o o 7 f U N U U t & s s C J n 1 # - t y ",
"t z *.*.*.w.*.y i } } ,.,.N x i & $ & 7 J 2.l.E M * t n n i i J K E 2.J t z U l.} U s & $ 7 - & i N n 7 - s 2.2.2.2.C 7 # * t i ",
"y z ,.,.%.,.) 8 f ) Z ) ) ) 9.N 8 & & y U 2.E U z t z U J j 7 z l.9.U z 7 i z J *.9.i O & 7 7 7 - i t * t n 2.9.U +.U i $ * t s ",
"i i N Z ~ x x 8 m ) ) ) N N N d 8 z x s z J L m u s U U U J t 7 n z i 7 - & 7 i i d 7 & - 8 y i 7 * t f s f J J U U U s * & 7 y ",
"7 = 8 8 7 7 8 = d z m ) *.) x 7 i ) ,.z t i s s s J @.2.2.J u # 7 7 7 i i & 7 d d 8 = = 7 i s i 7 t n N f i z J 2.U n i - & 7 7 ",
"z z z 0 5 d v z i i i f z z z i N *.) N z i 7 7 J 2.2.2.J t 7 t f z n K m 7 z ,.) x d 0 7 y s i i n U U U s 7 z m f y y 7 7 d z ",
"} y.,.x 8 N y.,./ m f i y 7 7 i *.} N 9.2.N i y z L U n t & 7 n E E U @.M 7 x 9.) %.%.N d 7 7 i J J U 2.d.n & * 7 - & i z z / } ",
"} y.,.,.d N ,.,.{ ..} N x 8 7 i } w.} } *.w.x 7 * s n 7 & t 7 z E E E E M y N ) { %.) ) v 7 t 2.2.U 2.} U J 7 o & & 7 m ,.) ../ "
};
