/* XPM */
static char * jerry_xpm[] = {
"64 64 95 2",
"  	c #7E7A75",
". 	c #827D77",
"+ 	c #8A857F",
"@ 	c #797772",
"# 	c #6C6B64",
"$ 	c #85807A",
"% 	c #86837C",
"& 	c #848077",
"* 	c #73726C",
"= 	c #6B6A5E",
"- 	c #79766E",
"; 	c #7B7A6F",
"> 	c #7F7C75",
", 	c #827F78",
"' 	c #716F69",
") 	c #615E59",
"! 	c #5C5B54",
"~ 	c #64635C",
"{ 	c #696762",
"] 	c #82817C",
"^ 	c #7D7E79",
"/ 	c #838077",
"( 	c #847F79",
"_ 	c #807C73",
": 	c #80836E",
"< 	c #727266",
"[ 	c #848285",
"} 	c #7C7C7C",
"| 	c #7A7A78",
"1 	c #7B7C77",
"2 	c #615D56",
"3 	c #69655E",
"4 	c #716D66",
"5 	c #89857C",
"6 	c #838079",
"7 	c #676963",
"8 	c #6E7355",
"9 	c #66704E",
"0 	c #616A4B",
"a 	c #5D634C",
"b 	c #626356",
"c 	c #6F706A",
"d 	c #767571",
"e 	c #666561",
"f 	c #5E5D59",
"g 	c #6D6D69",
"h 	c #5E605B",
"i 	c #656A53",
"j 	c #596243",
"k 	c #4C5735",
"l 	c #5E694E",
"m 	c #5E6850",
"n 	c #656A5B",
"o 	c #777873",
"p 	c #87847D",
"q 	c #565B4C",
"r 	c #6D7164",
"s 	c #595752",
"t 	c #848580",
"u 	c #848481",
"v 	c #7F807B",
"w 	c #817F80",
"x 	c #747379",
"y 	c #727A65",
"z 	c #888782",
"A 	c #7B7D78",
"B 	c #827E7D",
"C 	c #5A5D4C",
"D 	c #555B45",
"E 	c #59564F",
"F 	c #434343",
"G 	c #82837E",
"H 	c #660000",
"I 	c #88847C",
"J 	c #8A8981",
"K 	c #817C76",
"L 	c #837E78",
"M 	c #61634E",
"N 	c #6A7857",
"O 	c #76796C",
"P 	c #666666",
"Q 	c #6F7865",
"R 	c #51573D",
"S 	c #696768",
"T 	c #878883",
"U 	c #6F7170",
"V 	c #898582",
"W 	c #858482",
"X 	c #7B7C74",
"Y 	c #5E6353",
"Z 	c #565651",
"` 	c #55554E",
" .	c #7E8074",
"..	c #838177",
"+.	c #7D7C78",
"  . + @ # .   $ % . $ & * = # - # - ; > . , ' # , * ) ! ~ { { { * ] ^ > * { - / ( _ ; : < ~ * [ } | 1 ^ * ~ 2 ! ) 3 3 * . . ( . ",
".     4 { @   % $ $ 5 . 4 3 ' - * # # @ > ' 4 - 6   { ~ ~ # * # 7 * # ~ ) 2 3 # < 8 8 9 0 a b c } ] ^ * { ) ! 2 3 4 # < _ & $ _ ",
"# # { # { 4 4 * -   . - = # - @   * # # 4 ~ @ / % ] d e f ~ g # h 7 7 ~ e * * g i j j k j l m n * o * ~ ! ! 2 ~ 3 4 4 = < -   - ",
"2 # 4 -   * * ' = = = 3 ~ # @ @   > - 4 3 3 . $ ] p > g ) ~ # g o o | e # ] ] ^ 1 < 3 q r o o d ~ e e ! s ! ~ 3 = < = 3 3 3 # ~ ",
"~   . $ p . 6 > = b ! b ~ # * * @   - > # 3 ; . 6 t 6 @ { ~ * ^ ] u ] # 7 ^ v ^ [ w 7 ~ d } [ x ~ ) # 4 ~ ) { 3 = = 2 b 4 * # ~ ",
"~   $ $ % . p > y b 2 b 3 = # { -   -   4 # * - 6 z ] ^ * # d t A ^ ] c # ^ ^ 1 B % { g   , t d e { @ , # ~ 3 = = = 3 4 ; . . - ",
"~ * $ $ $ . 6 @ = b b = = = # { 4   - ' * @ - # @ p ] ] 1 # # | ] | d # e * d * d d e d @   d { # * . , - { ~ 3 # @   . . . .   ",
"{ 4 > . , > > * C D b = # # < * ~ 4 * 4 . p   { { > , ] ] g e g g ~ ~ ~ ~ # e f e ~ f | | ^ g ~ d ,     . 4 2 2 {   $ $ & $ $   ",
"~ 3 4 = ~ # = ~ E ~ ~ { # * - - b = = * . % B @ ~ # @ , | # ~ ~ { f 7 o - d # ~ ~ ) ~ { * * { ' ^ |   | # 3 # # { 4 > % , >   * ",
") ~ 4 # { 4 # # ! ~ # * < * * * - - 4 * - > % 6 * F F F F F F F F F F F F F F F F F F F F ) ) * ^ @ * ' 3 4   _ # #   . - * # 3 ",
"{ * . 6 > >     4 2 3 4 * - * * . . - ' { { - , F F ! e * | ^ t ^ d # ^ G ] d e F F H H H F ! ~ * * # 3 '   . I   3 # # # -   @ ",
"# * % J 6 6 > K ' ~ ' @ * 4 4   . .   F F 2 ~ # F ! ! # , t G ] ] o 7 ^ t ] F F H H H H H F ~ { 4 { { ' . I L _ . 3 # * @ $ $ 6 ",
"' * $ p 6 6     # 3 > $   - # 4 - @ F F @ 3 2 F F F F F F F F F F F F F F F H H H H H H H F # >   3 # K , $ I - * 3 * $ % p $ $ ",
"' *   > > > @ @ # 4 > . 6 + * ) ~ F F H F 3 2 F H H H H H H H H H H H H H H H H H H H H H F * + $ @ # * .   < - * # * , p $ % p ",
"3 3 4 4 # ' # 3 ~ '   @   . * ~ F F H H H F F F H H H H H H H H H H H H H H H H H H H H H F @ % . 5 4 ~ - - 4 @ . - 4   $ @ - 4 ",
"~ 3 * * * * { ) ~ # ' *   @ # s F ~ F H H H H H H H H H H H H H H H H H H H H H H H H H H F K K . _ - 3 b - + $ 6 . { ' - { # 3 ",
"* @ J 6 6 6 - * @ - # # b i M C ~ ~ # F H H H H H H H H H H H H H H H H H H H H H H H H H F 3 = N i i O * 4 + > 6 - # 4 * - d | ",
"* @ p 6 6 6 * # > 6 / < ! b D C { F F F H H H H H H H H H H H H H H H H H H H H H H H H H F ~ b D D r > _ # - < ~ 3 4 > % % ^ ^ ",
"# - 6 6 6 > * # > .   # = ; = = { F H H H H H H H H H H H H H H H H H H H H H H H H H H H F ~ ) D C > _ . < 3 3 { { '   ( . > 6 ",
"# * , , ,   ' # . + $ * - $   - # F H H H H H H H H H H H H H H H H H H H H H H H H H H H F { # # # @ ( . - b b # ' * K ( > > 6 ",
"{ * d d d * # e 4 @ - #   @ ,   { F H H H H H H H H H H H H H H H H H H H H H H H H H H H F # @ , * {   $ > 3 b # # # * - * * * ",
"~ # # ~ e ~ f ! ~ 3 ~ ~ * #   4 ~ F H H H H H H P H H H H H H H H H H H H H H P H H H H H F * p ,   # #   . - ~ = = 2 2 ~ ~ e ~ ",
"o > o * d o * ~ * > > - # ~ { ~ 3 F H H H H H H H P H H H H H H H H H H H H P H H H H H H F #   | p | { { - - ) l i a b { { g ~ ",
"| v | @ v 6 d ~ | 6 > > - @ { ! ! F H H H H H H H H P H H H H H H H H H H P H H H H H H H F ~ { * ^ > - ~ { ~ ~ a i b 3 { ' d # ",
"| | 1 ^ ^ ] c e ^ , % , @ , ' ~ b F H H H H H H H H H P P P P P P P P P P H H H H H H H H F ~ ~ b # @ | ~ s # > Q l j i # g g # ",
"| ^ ^ ^ ^ v g ~ ^ ] 6 , , , # # / F H H H H H H H H H P H H H H H H H H P H H H H H H H H F ~ 3 * * { ~ ~ * 6 > O i R a # * * # ",
"| ^ 1 | | ^ g { ^ t , ^ , @ {   , F H H H H H H H H H P H H H H H H H H P H H H H H H H H F ~ # p   # { @ % p   6 O C b # g @ # ",
"S g g # # * # e | ] , > @ { { , , F H H H H H H H H H P H H H H H H H H P H H H H H H H H F ~ - + - ~ # , 6 > > B 6 # ~ e g * # ",
"f e ~ f ) { f f e # ' * # e * % z F H H H H H H H H H P H H H H H H H H P H H H H H H H H F # # # { ) { > 6 . , } B @ ) 7 d g { ",
"7 * c g g ' ~ e g e ~ ~ ) ~ d > B F H H H H H H H H H P H H H H H H H H P H H H H H H H H F * ! s * * # ' @ , 6 u B | ~ f g e ~ ",
"o v ] v , ^ g ' T ^ * # ~ s e e @ F H H H H H H H H H P H H H H H H H H P H H H H H H H H F * ~ { ^ ^ g ~ ~ * v ^ d * e e # e f ",
"o v ] ] ] ^ g * t t p ^ * f ~ ~ ~ F H H H H H H H H H P H H H H H H H H P H H H H H H H H F 7 ~ | v v ^ * h { | - e e d ] p d ) ",
"U o t | } ^ { * u V u z # e o d { F H H H H H H H H H P H H H H H H H H P H H H H H H H H F ! ! g ^ v } } S f ~ ) ! | t ^ v ] e ",
"7 o W } } @ e d u ,   > # * ] t | F H H H H H H H H H P H H H H H H H H P H H H H H H H H F ! ~ f c ] ] ^ g h e # ~ # ] G W } 7 ",
"7 o | d * # ~ *   ^ ^ - e * ^ B p F H H H H H H H H H P H H H H H H H H P H H H H H H H H F * 1 e ~ * X O { e | ^ * 7 A ] ] o g ",
"f e ~ f ! f f e 7 g * { ~ , , 6 u F H H H H H H H H H P H H H H H H H H P H H H H H H H H F | ^ ^ # Y n n 3 * W t } e c u ] o g ",
"g d * g ~ g | * # ~ ~ ! ~     6 t F H H H H H H H H H P H H H H H H H H P H H H H H H H H F v G u o ! q Y r G v ^ ] # ~ * g # ! ",
"  % ] @ ~ * %   ^ * * { s ~ ~ # # F H H H H H H H H H P H H H H H H H H P H H H H H H H H F G G ] d ! ! ~ # ] ] v ^ g f e ~ e Z ",
"  + % d ) * ^ , B ^ , * ! ~ ~ ~ s F H H H H H H H H H P H H H H H H H H P H H H H H H H H F ] ] | e ! ~ 7 # * ] v g ~ { - $   ~ ",
"#     - { @ @ 6 , B , # f @ o ~ ! F H H H H H H H H H P H H H H H H H H P H H H H H H H H F # c g ! f e g * e d # ~ 4 $ K ( - 3 ",
"~ - @ - ~ - d @ ^ ^ d ~ * ^ ^ o { F H H H H H H H H H P H H H H H H H H P H H H H H H H H F ~ ~ s Z h # 7 c r Y ~ ~ > 5 5 .   # ",
") ~ 3 3 E ~ e 7 # g e ~ ^ ] 1 G - F H H H H H H H H H P P P P P P P P P P H H H H H H H H F . - e ~ ~ g # 7 7 # ^ # 4 . L   * # ",
"! ! ! # ~ # 7 S ~ ~ ~ ~ * > G ^ @ F H H H H H H H H P H H H H H H H H H H P H H H H H H H F + . ^ * e # g * * A ^ d # - * 4 ~ ! ",
") ~ { | d d d d ~ { @ - 3 { @ d ~ F H H H H H H H P H H H H H H H H H H H H P H H H H H H F & 5 z * ~ ~ 7 | ] u ^ | ~ ~ ~ ! ! ! ",
"e { { @ @ @ | o { - . 6 < ! ~ ~ E F H H H H H H P H H H H H H H H H H H H H H P H H H H H F 5 I $ * 3 { e d } | | * f ~ ' s ! ~ ",
"~ { { d ^ ] u | { - > $ # ~ { ! ` F H H H H H H H H H H H H H H H H H H H H H H H H H H H F . . @ < ;  .# { # g e g *   % { 2 ! ",
"~ { e * |   ] d ~ @ p $ ~ # p d = F H H H H H H H H H H H H H H H H H H H H H H H H H H H F 4 - g @  ...< 7 f ~ # | 6 % % * ) ! ",
"~ 3 ) ~ e ~ # ~ ! * 4 * { - t p > F H H H H H H H H H H H H H H H H H H H H H H H H H H H F 2 ~ * ] > ;  .O ~ ~ v v > ] 6 * ! ! ",
"! ~ # * * * # ~ e # e ! ~ ^ % ] 6 F H H H H H H H H H H H H H H H H H H H H H H H H H H H F - # # /  .;  .> * ~ * ^ ] > * ~ ! ! ",
"~ * , ] ,   * e , , @ * ~ ' d ] 1 F H H H H H H H H H H H H H H H H H H H H H H H H H H H F & @ 3 < < X X O # f e * * { { * @ @ ",
"~ #   | d d g # | ] ] > ~ * { e # F H H H H H H H H H H H H H H H H H H H H H H H H H H H F . # s ~ # @ @ c g # ~ e # d ^ , , ^ ",
"e #     @ d { #   ] 6 @ { 6 > * ! ~ F H H H H H H H H H H H H H H H H H H H H H H H H H F &   3 e e ~ e # * | ] g ~ 7 ^ J t ] 6 ",
"3 ~ * < * c 3 # ,     * # > $ - ~ * F H H H H H H H H H H H H H H H H H H H H H H H H H F . * # | d ~ f * ^ ] } 1 g # | ] ]   - ",
"! ! ~ b b b ! 3 * ' - 4 - $ 6 # g ^ , F F F F F F F F F F F F F F F F F F F F F F F F F @ ' # d ^ ^ g e * v } o ^ g e g * # ~ ) ",
"2 # ; ; - # b ! ! ~ 3 2 {   @ { d , ^ ^ # ! g g g d ^ | 7 ~ # * o v 6 o 3 = v W ^ d # ~ ! ) d t ] ] @ # ~ # | A * e f ! ! s ! ~ ",
") @ t t 6 v X # 3 4 * * { # e 7 | ^ ] * f g ] d e # * e Z e A ^ ^ ] B d ~ # W [ t ]   # ` ! @ | t ^ , | ~ h * S # * # ! ! ) ~ e ",
"{ * 6 p 6 $ . ' # 6       ' # 2 ~ * * ~ # o ] o * e ! e 7 e d , v ^ 6 | ~ g } u ] ^ d ~ ` ` ~ ' ^   ^ ^ e ! g g 1 | d h Z ) e { ",
"e * 6 6 6 p 6 { # , , $ $   - # ! s ! ~ | ] u } o f e d d # # | A } ] | e * ^ u , ^ g ! s ~ ) ! #   d ~ ) g ] ] ] ] 1 ~ Z f e # ",
"{ * $ $ & $ . 3 ' . > . . . %   3 ! ! { ^ ] } ^ * e * ^ | c ~ * u % ^ * ~ # * | 6 % # E ! ~ ~ ~ ) # e f e d ] % ^ v ^ # s f e g ",
"# #   > _ - - 3 @ . . .       4 3 * - g * | +.@ 7 g ^ ^ ^ | e ~ d * # ~ ) ! ~ # # 4 ~ ! ) 3 { # ~ f e ' g ' | | ^ ^ ^ g f ! ~ { ",
"~ 2 3 3 ~ ~ 3 2 4 * @ . 6 . - ~ # . $ * e # g g g | v ] ] | 7 Z ~ ~ ~ # # ! ~ 4 4 3 2 2 ~ # g # ~ e d   ' # * | ] ^ d # ) ! ~ ~ ",
"* * * = b 4 ; * # # # ' * * * #   6 .   * # ~ ~ | ] ] ] | e ~ e ' * d A @ ~ * $ . - 4 = ~ { g # # d ^ ^ ^ g ~ * @ ' { { ~ ~ 4 * ",
", + $ - 3   + $ K @ ' # { ~ ~ # 6 ,   % ]   # { * +.^ d e ! ~ d } } ^ v o ~ - % . & &   4 ~ ~ # | | ^ ] t d ! f ~ ) ! # * * K , ",
", + $ $ 4   $ $ L ( ,   - 3 ~ # , p , , 6 p - ~ f g d ~ ! e ~ * } } } } o {   . L & . . ; ~ e ] ] ^ ] , ^ | ~ ` ! ! ~ @ $ . ( K "};
