/* XPM */
static char *fd43f4e3d1b14885d13bbf9ca47b5cacJobB11RKxmBJU7wN[] = {
/* columns rows colors chars-per-pixel */
"64 64 221 2 ",
"   c #030306",
".  c #04030A",
"X  c #0A050B",
"o  c #0A0A0D",
"O  c #050312",
"+  c #0A0513",
"@  c #0E0B13",
"#  c #05011B",
"$  c #0A051D",
"%  c #110D19",
"&  c #111114",
"*  c #15131B",
"=  c #1B1B1D",
"-  c #25060E",
";  c #260E19",
":  c #0F052E",
">  c #140E25",
",  c #1A1826",
"<  c #1B152D",
"1  c #1D1631",
"2  c #2B1D28",
"3  c #211D32",
"4  c #1A2126",
"5  c #1E242B",
"6  c #242423",
"7  c #2B2A27",
"8  c #22262E",
"9  c #2B2A2B",
"0  c #272735",
"q  c #3E2834",
"w  c #26333B",
"e  c #2B353D",
"r  c #373634",
"t  c #35353B",
"y  c #3B3A3B",
"u  c #46393C",
"i  c #42423E",
"p  c #4F5739",
"a  c #2E2A42",
"s  c #342B4C",
"d  c #2C3642",
"f  c #2C3A45",
"g  c #353442",
"h  c #333C44",
"j  c #3D3D43",
"k  c #3D374A",
"l  c #333E4B",
"z  c #3C3B49",
"x  c #352F56",
"c  c #3A3755",
"v  c #413C48",
"b  c #354246",
"n  c #35424C",
"m  c #3B434B",
"M  c #364554",
"N  c #3C4651",
"B  c #3C4956",
"V  c #434444",
"C  c #494945",
"Z  c #44444C",
"A  c #4B4B4C",
"S  c #555B45",
"D  c #55554E",
"F  c #59564F",
"G  c #565B4C",
"H  c #5A5D4C",
"J  c #434351",
"K  c #4A4654",
"L  c #4D4B53",
"P  c #474A5A",
"I  c #574D58",
"U  c #4A515D",
"Y  c #565652",
"T  c #595752",
"R  c #575852",
"E  c #5C5B54",
"W  c #55555B",
"Q  c #5E5D59",
"!  c #615155",
"~  c #615D56",
"^  c #615E59",
"/  c #596243",
"(  c #5D634C",
")  c #5E694E",
"_  c #5E6353",
"`  c #5E6850",
"'  c #5E605B",
"]  c #61674D",
"[  c #66704E",
"{  c #626356",
"}  c #656A53",
"|  c #64635C",
" . c #69655E",
".. c #656A5B",
"X. c #6B6A5E",
"o. c #6D7556",
"O. c #494863",
"+. c #514D6C",
"@. c #4B5265",
"#. c #565965",
"$. c #535E6C",
"%. c #5A5676",
"&. c #615B77",
"*. c #596676",
"=. c #666561",
"-. c #696762",
";. c #676963",
":. c #6C6B64",
">. c #696768",
",. c #67686A",
"<. c #6D6D6A",
"1. c #716D66",
"2. c #716F69",
"3. c #6D7164",
"4. c #6F7865",
"5. c #6F706A",
"6. c #727266",
"7. c #727A65",
"8. c #73726C",
"9. c #79766E",
"0. c #76796C",
"q. c #7B7A6F",
"w. c #696777",
"e. c #707072",
"r. c #767571",
"t. c #797772",
"y. c #777873",
"u. c #7E7B75",
"i. c #767579",
"p. c #747A7F",
"a. c #7C7C79",
"s. c #997069",
"d. c #827D77",
"f. c #87707D",
"g. c #827F79",
"h. c #7E8074",
"j. c #7F807B",
"k. c #80836E",
"l. c #848077",
"z. c #84817B",
"x. c #89857E",
"c. c #6B6481",
"v. c #7D7E81",
"b. c #75778A",
"n. c #7A7997",
"m. c #887F83",
"M. c #967C85",
"N. c #847C94",
"B. c #7E8182",
"V. c #7F878E",
"C. c #848481",
"Z. c #888686",
"A. c #8A8981",
"S. c #80858D",
"D. c #8A8A8C",
"F. c #9C8F8E",
"G. c #848896",
"H. c #8B8D94",
"J. c #8C9295",
"K. c #8E9398",
"L. c #969599",
"P. c #93939C",
"I. c #B0918E",
"U. c #ABA29E",
"Y. c #8B87A6",
"T. c #8E91AE",
"R. c #9494A1",
"E. c #959AA5",
"W. c #9A99A2",
"Q. c #9B97B1",
"!. c #A19DB5",
"~. c #9CA1AD",
"^. c #A9AAAE",
"/. c #A5AAB3",
"(. c #A9A8B9",
"). c #B7ABB9",
"_. c #ACB3BD",
"`. c #B4B5BA",
"'. c #D1A69D",
"]. c #C9B5A9",
"[. c #ADB2C6",
"{. c #B2B2C3",
"}. c #BBBDC6",
"|. c #B8B7C9",
" X c #BCBDCC",
".X c #B9B7D2",
"XX c #BDC0CA",
"oX c #C7C5CA",
"OX c #C4C4D2",
"+X c #C4C3DB",
"@X c #CACAD9",
"#X c #D6D4DC",
"$X c #F7D3D1",
"%X c #F1E9DF",
"&X c #C7C6E3",
"*X c #CCCBE5",
"=X c #D1CFE7",
"-X c #D6D5E5",
";X c #D6DAE3",
":X c #DADBE6",
">X c #D6D5EA",
",X c #DCDCEC",
"<X c #D7D5F0",
"1X c #DDDCF2",
"2X c #E4DDE9",
"3X c #DFE3EC",
"4X c #DFE3F0",
"5X c #E2E3EE",
"6X c #F4E8EF",
"7X c #E4E4F3",
"8X c #EAEAF5",
"9X c #E8E8F7",
"0X c #EBECFB",
"qX c #F3EFF6",
"wX c #EDF1FC",
"eX c #F5F5F5",
"rX c #FAF6F6",
"tX c #F3F5FB",
"yX c #F9F6FD",
"uX c #F4F9FB",
"iX c #F9FAFC",
/* pixels */
"u.d.x.t.:.d.u.z.z.d.z.l.8.X.:.9.:.9.q.u.d.g.2.:.g.8.^ E | -.-.-.8.z.a.u.8.-.9.l.g.d.q.k.6.| 8.C.a.a.a.a.8.| ~ E ^  . .8.d.d.g.d.",
"d.u.u.1.-.t.u.z.z.z.x.d.1. .2.9.8.:.:.t.u.2.1.9.l.u.-.| | :.8.:.;.8.:.| ^ ~  .:.6.o.o.[ ] ( { 5.a.z.a.8.-.^ E ~  .1.:.6.d.l.z.d.",
":.:.-.:.-.1.1.8.9.u.d.9.X.:.9.t.u.8.:.:.1.| t.l.z.z.r.=.Q | <.:.' ;.;.| =.8.8.<.} / / p / ) ` ..8.y.8.| E E ~ |  .1.1.X.6.9.u.9.",
"~ :.1.9.u.8.8.2.X.X.X. .| :.t.t.u.u.9.1. . .d.z.z.x.u.<.^ | :.<.y.y.a.=.:.z.z.a.a.6. .G 3.y.y.r.| =.=.E T E |  .X.6.X. . . .:.| ",
"| u.d.z.x.d.l.u.X.{ E { | :.8.8.t.u.9.u.:. .q.d.l.C.l.t.-.| 8.a.z.C.z.:.;.a.j.a.C.m.;.| r.a.C.i.| ^ :.1.| ^ -. .X.X.~ { 1.8.:.| ",
"| u.z.z.z.d.x.u.7.{ ~ {  .X.:.-.9.u.9.u.1.:.8.9.l.A.z.a.8.:.r.C.a.a.z.5.:.a.a.a.g.z.-.<.u.g.C.r.=.-.t.g.:.|  .X.X.X. .1.q.d.d.9.",
"| 8.z.z.z.d.l.t.X.{ { X.X.X.:.-.1.u.9.2.8.t.9.:.t.x.z.z.a.:.:.a.z.a.r.:.=.8.r.8.r.r.=.r.t.u.r.-.:.8.d.g.9.-.|  .:.t.u.d.d.d.d.u.",
"-.1.u.d.g.u.u.8.H S { X.:.:.6.8.| 1.8.1.d.x.u.-.-.u.g.z.z.<.=.<.<.| | | | :.=.Q =.| Q a.a.a.<.| r.g.u.u.d.1.~ ~ -.u.z.z.l.z.z.u.",
"|  .1.X.| :.X.| F | | -.:.8.9.9.{ X.X.8.d.z.g.t.| :.t.g.a.:.| | -.Q ;.y.9.r.:.| | ^ | -.8.8.-.2.a.a.u.a.:. .:.:.-.1.u.z.g.u.u.8.",
"^ | 1.:.-.1.:.:.E | :.8.6.8.8.8.9.9.1.8.9.u.z.l.8.:.-.:.:.;.<.a.t.<.<.j.l.j.r.:.9.r.r.<.-.^ ^ 8.a.t.8.2. .1.u.d.:.:.u.d.9.8.:. .",
"-.8.d.l.u.u.u.u.1.~  .1.8.9.8.8.d.d.9.2.-.-.9.g.8.| E =.8.a.a.C.a.r.:.a.z.z.r.=.t.g.C.g.a.-.E | 8.8.:. .2.u.d.x.u. .:.:.:.9.u.t.",
":.8.z.A.l.l.u.d.2.| 2.t.8.1.1.u.d.d.u.9.-.~ | :.| E E :.g.C.z.z.z.y.;.a.C.z.r.=.u.g.a.g.z.8.| -.1.-.-.2.d.x.g.d.d. .:.8.t.z.z.l.",
"2.8.z.x.l.l.u.u.:. .u.z.u.9.:.1.9.t.u.l.t. .~ E E {  .:.t.z.z.z.z.y.=.a.C.j.r.=.u.g.g.g.u.:.:.u.u. .:.d.g.z.x.9.8. .8.z.z.x.z.z.",
"2.8.u.u.u.u.t.t.:.1.u.d.l.x.8.^ | :.u.x.u. .~ E _ | :.:.8.a.z.z.g.8.:.a.g.u.8.=.8.t.u.a.9.:.8.x.z.t.:.8.d.u.6.9.8.:.8.g.x.z.z.x.",
" . .1.1.:.2.:. .| 2.u.t.u.d.8.| T | 1.9.:.E E ^ | -.:.:.8.y.a.r.:.E E -.-.-.| Q  ...| | |  .t.z.d.x.1.| 9.9.1.t.d.9.1.u.z.t.9.1.",
"|  .8.8.8.8.-.^ | :.2.8.u.t.:.T { | { | | E E ^ | :.8.:.-.| | | :.E E :.=.:.-.-._ E S T ~ :.d.d.d.d.9. .{ 9.x.z.l.d.-.2.9.-.:. .",
"8.t.A.l.l.l.9.8.t.9.:.:.{ } ] H | | :.{ { X.| ^ | :.8.:.-.| 9.a.u.-.:.z.z.u.g.g.0.G D E { {  .X.o.} } 0.8.1.x.u.l.9.:.1.8.9.r.a.",
"8.t.x.l.l.l.8.:.u.l.l.6.E { S H -.:.-. .6.9.| ~ :.:.:.-.-.t.l.l.u.<.8.z.z.a.l.d.a.| T ^  . .| { S S 3.u.d.:.9.6.|  .1.u.z.z.a.a.",
":.9.l.l.l.u.8.:.u.d.u.:.X.q.X.X.-. .:.6.u.z.8.| | | 8.:.| a.z.z.z.8.8.u.u.u.l.z.q.| E ^ -.:.| ^ S H u.d.d.6. . .-.-.2.u.g.d.u.l.",
":.8.g.g.g.u.2.:.d.x.z.8.9.z.u.9.:. .8.d.l.d.8.^ E :.g.u.:.r.a.g.a.:.:.<.<.8.9.9. .T E | :.2.-.:.:.:.t.g.d.9.{ { :.2.8.d.g.u.u.l.",
"-.8.r.r.r.8.:.=.1.t.9.:.u.t.g.u.-.1.t.z.l.8.:.-.2.a.z.z.8.=.8.8.| E | =.| E T E _ H { ..:.:.:.t.g.8.-.u.z.u. .{ :.:.:.8.9.8.8.8.",
"| :.:.| =.| Q E |  .| | 8.:.u.1.| u.u.u.u.:.| :.u.g.a.r.:.E :.:.| | r.u.r.:.| 8.6.3.X.{ { ..8.x.g.u.:.:.u.d.9.| X.X.~ ~ | | =.| ",
"y.u.y.8.r.y.8.| 8.u.u.9.:.| -.| > yXg z z z v z z J v Z z z J a s c &.< u.8.:.a.l.u.6.E G | :.u.a.x.a.-.-.9.9.^ ) } ( { -.-.<.| ",
"a.j.a.t.j.l.r.| a.l.u.u.9.t.-.C (.%.(.,X-X:X:X:X-X:X#X:X-X,X-XY.Q.T.x c u.r.:.a.u.g.8.E T | | -.8.a.u.9.| -.| | ( } {  .-.2.r.:.",
"a.a.a.a.a.z.5.=.a.g.z.g.8.A > # +.G._.iXyXiXrXrXiXyXrXrXyXyXiXR.b.[.%.c 8 C Y <.d.u.6.E E | | | { :.t.a.| T :.u.4.) / } :.<.<.:.",
"a.a.a.a.a.j.<.| a.z.l.d.> s 0 < G.w.P.iXrXeXeXrXeXeXrXeXrXrXtXS.d @.T.Y.n.+.< 3 3 , r T ~ :.|  .8.8.-.| | 8.l.u.0.} p ( :.8.8.:.",
"a.a.a.a.a.a.<.-.a.C.g.a.2 ; f.D.#.m J.iXeXeXiXeXeXeXrXeXeXeXuXJ.B l O.n.&X.X{.{.!.w.@.P c > # $ l.u.:.-.t.z.x.u.l.0.H { :.<.t.:.",
">.<.<.:.:.8.:.=.a.z.g.u.- - M.F.Z m L.iXeXeXeXeXiXeXeXrXiXrXtXG.w l l @..XwX0X0X0X4X>X1X!.n.%.# $ :.| :.g.l.u.u.g.l.:.| =.<.8.:.",
"Q =.| Q ^ -.Q Q =.:.2.:.X q M.M.z m K.uXeXeXeXiXeXeXeXeXeXeXtXG.b b l P  X7X7X7X7X7X7X7X7X0X.Xw.# a ^ -.u.l.d.g.a.g.t.^ ;.r.<.-.",
";.8.5.<.<.2.| =.<.=.| D @ I ).m.z h J.iXyXrXeXeXeXiXiXeXeXrXuXS.e e n h E.7X0X5X7X,X7X,X7X,X0XY.0 O.8.:.2.t.g.l.C.g.a.| Q <.=.| ",
"y.j.z.j.g.a.<.2.A.a.8.D + K L.S.m d K.iXiXiXtXiXiXtXtXuXiXiXuXV.h e e w S.8X7X7X8X5X8X0X5X7X0X.Xc c.a.<.| | 8.j.a.r.8.=.=.:.=.Q ",
"y.j.z.z.z.a.<.8.C.C.x.V % J K.B.h #.OXtX;X:X;X5X:X;X:X:X;X:XuX_.h h h 8 B.8X7X8X7X8X7X7X8X7X7X!.c &.j.a.8.' -.a.9.=.=.r.z.x.r.^ ",
"e.y.C.a.a.a.-.8.C.A.C.y + K H.B.h _.uX/.$.$.#.E.@.$.$.*.$.$.[.0X/.h e 8 v.wX5X8X8X5X5X8X7X7X@Xv # < j.a.a.>.Q | ^ E a.C.a.j.z.=.",
";.y.C.a.a.t.=.r.C.g.u.9 + L H.B.p.5X3X$.l M B G.d M M f B M U _.wX/.m 0 S.8X8X7X7X8X8X8X7X0XOXz # < z.z.a.<.' =.:.| :.z.z.C.a.;.",
";.y.a.r.8.:.| 8.u.a.a.* O L H.P.#XuX/.l w n J S.0 h N n f n h B ~.uX/.t v.7X,X-X5X8X8X8X4X7X}.z # < 8.a.0.-.=.a.a.8.;.a.z.z.y.<.",
"Q =.| Q E Q Q =.;.<.8.% @ K L.#X8X3XU e e e g S.4 h w e d e d l h |.uX/.E.0X,X-X,X-X:X7XwX8X@XK $ 1 _ .... .8.C.C.a.=.5.C.z.y.<.",
"<.r.8.<.| <.a.8.:.| | @ + v F.rXqXH.0 8 , 5 8 /.Z 4 4 5 5 8 8 5 P XX{.0X8X8X8X8X0X5X5X5X,X>X7XN.: s E G _ 3.z.j.a.z.:.| 8.<.:.E ",
"u.z.z.t.| 8.z.u.a.8.8.* @ u s.$X6XOX}.OXXX}.@X:X_./.`.(.`. X X X@X7X X1X1X7X0XtXtX0X0X0X0X7X8XN.: x E E | :.z.z.j.a.<.Q =.| =.Y ",
"u.x.z.r.^ 8.a.g.g.a.d.* X u s.'.2X7X7X:X7X4X1X*X.X@XOX+X,X,X1X7X+X+X>X1X*X<X7X,X8X8X0XqXtXqX%XU.k w.E | ;.:.8.z.j.<.| -.9.z.u.| ",
":.u.u.9.-.t.t.l.g.g.g.* . ! I.].oXOX XOX X-X,X*X+X1X,X:X-X,X,X>X>X>X1X1X@X=X>X,X X}.}.oXoXoX].F.k w.Q =.<.8.=.r.:.| 1.z.d.g.9. .",
"| 9.t.9.| 9.r.t.a.a.r.* . L d.t.r.<.W j <.P.W.P.P.P.W.W.P.P.P.P.P.R.P.P.P.P.R.P.Z L i.a.D.D.C.L O < ' :.;.5.3._ | | u.x.x.d.u.:.",
"^ |  . .F | =.;.:.<.=.@ @ t #.i.r y A A t j e.i.a.a.v.v.a.i.a.a.a.v.a.v.i.a.W 9 A A 6 9 =.e.W t . * | <.:.;.;.:.a.:.1.d.g.u.8.:.",
"E E E :.| :.;.>.| | | u 4 , Z W o i.^.`.C.= W <.<.<.<.<.,.,.<.<.<.,.e.<.i.,., =.^.`.C.X A t =   X @ =.:.<.8.8.a.a.r.:.9.8.1.| E ",
"^ | -.a.r.r.r.r.| -.t.9.= & + * o C L.K.t   9 V y y y y y y y y y V y y C y   6 C.D.V o * @ X 9.C.8.| | ;.a.z.C.a.a.| | | E E E ",
"=.-.-.t.t.t.a.y.-.9.d.l.6.7 @ . X   = =   X o o 6 r C R Q ^ Q i y V C y 9 i y   = & & X o T x.x.z.8. .-.=.r.a.a.a.8.Q | 2.T E | ",
"| -.-.r.a.z.C.a.-.9.u.z.:.| -.E D E |  .=.-.:.<.a.a.z.Z.z.r.<.Q R ' | ;.;.=.Q E E X.| 1.u.l.d.g.t.6.q.h.:.-.:.<.=.<.8.u.z.-.~ E ",
"| -.=.8.a.u.z.r.| t.x.z.| :.x.r.X.E | :.' 5.j.5.-.r.a.y.<.=.| :.y.y.y.a.a.a.8.=.6.d.9.8.1.1.1.9.<.t.h.l.6.;.Q | :.a.l.z.z.8.^ E ",
"|  .^ | =.| :.| E 8.1.8.-.9.C.x.u.-.E Q <.a.C.a.=.| <.;.E =.8.a.C.a.a.C.a.z.y.| 9.l.d.l.u.8.~ | 8.z.u.q.h.0.| | j.j.u.z.l.8.E E ",
"E | :.8.8.8.:.| =.:.=.E | a.z.z.l.r.| =.a.z.j.C.a.E E =.Q <.B.a.l.a.B.v.C.g.8.:.u.z.g.d.d.u.9.:.:.l.h.q.h.u.8.| 8.a.z.u.8.| E E ",
"| 8.g.z.g.u.8.=.g.g.t.8.| 2.r.z.a.<.E 8.C.a.z.a.<.Q =.8.,.;.y.B.a.a.v.v.a.a.8.<.l.d.d.z.g.d.l.t. .6.6.a.a.0.:.Q =.8.8.-.-.8.t.t.",
"| :.u.a.r.r.<.:.a.z.z.u.| 8.-.=.:.| ' 8.a.a.a.<.' ;.y.j.r.=.<.C.v.v.v.a.h.a.8.8.a.u.d.x.z.d.d.:.T | :.t.t.5.<.:.| =.:.r.a.g.g.a.",
"=.:.u.u.t.r.-.:.u.z.l.t.-.l.u.8.E | 2.=.=.y.8.| =.y.a.a.a.>.;.y.a.i.r.5.6.:.| =.g.l.d.d.d.l.u. .=.=.| =.:.8.a.z.<.| ;.a.A.C.z.l.",
" .| 8.6.8.5. .:.g.u.u.8.:.u.z.9.| 8.g.:.Q =.Q Q y.B.a.a.a.r.=.=.,.>.| _ H S G E <.r.8.q.z.d.8.:.a.r.| Q 8.a.z.a.a.<.:.a.z.z.u.9.",
"E E | { { { E  .8.2.9.1.9.z.l.:.<.a.g.u.:.Y Q | a.a.C.a.a.>.| =.:.5.5. .H H ..5.=.-.| 1.t.2.:.r.a.a.<.=.8.j.a.y.a.<.=.<.8.:.| ^ ",
"~ :.q.q.9.:.{ E E |  .~ -.u.t.-.r.g.a.a.:.E <.<.<.r.a.a.;.| :.8.y.j.l.y. .X.j.C.a.r.:.| E ^ r.C.z.z.t.:.| :.a.a.8.=.Q E E T E | ",
"^ t.C.C.l.j.a.:. .1.8.8.-.:.=.;.a.a.z.8.Q <.z.r.=.:.8.=.Y =.a.a.a.z.g.r.| :.C.C.C.z.u.:.D E t.a.C.a.g.a.| ' 8.>.:.8.:.E E ^ | =.",
"-.8.l.x.l.z.d.2.:.l.u.u.u.2.:.~ | 8.8.| :.y.z.y.8.=.E =.;.=.r.g.j.a.l.a.| <.a.C.z.a.r.| D D | 2.a.u.a.a.=.E <.<.a.a.r.' Y ^ =.-.",
"=.8.l.l.l.x.l.-.:.g.g.z.z.u.9.:.E T E | a.z.C.a.y.Q =.r.r.:.:.a.a.a.z.a.=.8.a.C.g.a.<.E T | ^ E :.u.r.| ^ <.z.z.z.z.a.| Y Q =.:.",
"-.8.z.z.l.z.d. .2.d.u.d.d.d.z.u. .E E -.a.z.a.a.8.=.8.a.a.5.| 8.C.z.a.8.| :.8.a.l.z.:.F E | | | ^ :.=.Q =.r.z.z.a.j.a.:.T Q =.<.",
":.:.u.u.d.9.9. .t.d.d.d.u.u.u.1. .8.9.<.8.a.a.t.;.<.a.a.a.a.=.| r.8.:.| ^ E | :.:.1.| E ^  .-.:.| Q =.2.<.2.a.a.a.a.a.<.Q E | -.",
"| ~  . .| |  .~ 1.8.t.d.l.d.9.| :.d.z.8.=.:.<.<.<.a.j.z.z.a.;.Y | | | :.:.E | 1.1. .~ ~ | :.<.:.| =.r.u.2.:.8.a.z.a.r.:.^ E | | ",
"8.8.8.X.{ 1.q.8.:.:.:.2.8.8.8.:.u.l.d.u.8.:.| | a.z.z.z.a.=.| =.2.8.r.a.t.| 8.z.d.9.1.X.| -.<.:.:.r.a.a.a.<.| 8.t.2.-.-.| | 1.8.",
"g.x.z.9. .u.x.z.d.t.2.:.-.| | :.l.g.u.z.z.u.:.-.8.a.a.r.=.E | r.a.a.a.j.y.| 9.z.d.l.l.u.1.| | :.a.a.a.z.C.r.E Q | ^ E :.8.8.d.g.",
"g.x.z.z.1.u.z.z.g.g.g.u.9. .| :.g.x.g.g.l.x.9.| Q <.r.| E =.| 8.a.a.a.a.y.-.u.d.g.l.d.d.q.| =.z.z.a.z.g.a.a.| D E E | t.z.d.g.d."
};
