/* XPM */
static char * start_xpm[] = {
"64 64 200 2",
"  	c #7E7A75",
". 	c #827D77",
"+ 	c #8A857F",
"@ 	c #797772",
"# 	c #6C6B64",
"$ 	c #85807A",
"% 	c #86837C",
"& 	c #848077",
"* 	c #73726C",
"= 	c #6B6A5E",
"- 	c #79766E",
"; 	c #7B7A6F",
"> 	c #7F7C75",
", 	c #827F78",
"' 	c #716F69",
") 	c #615E59",
"! 	c #5C5B54",
"~ 	c #64635C",
"{ 	c #696762",
"] 	c #82817C",
"^ 	c #7D7E79",
"/ 	c #838077",
"( 	c #847F79",
"_ 	c #807C73",
": 	c #80836E",
"< 	c #727266",
"[ 	c #848285",
"} 	c #7C7C7C",
"| 	c #7A7A78",
"1 	c #7B7C77",
"2 	c #615D56",
"3 	c #69655E",
"4 	c #716D66",
"5 	c #89857C",
"6 	c #838079",
"7 	c #676963",
"8 	c #6E7355",
"9 	c #66704E",
"0 	c #616A4B",
"a 	c #5D634C",
"b 	c #626356",
"c 	c #6F706A",
"d 	c #767571",
"e 	c #666561",
"f 	c #5E5D59",
"g 	c #6D6D69",
"h 	c #5E605B",
"i 	c #656A53",
"j 	c #596243",
"k 	c #4C5735",
"l 	c #5E694E",
"m 	c #5E6850",
"n 	c #656A5B",
"o 	c #777873",
"p 	c #87847D",
"q 	c #565B4C",
"r 	c #6D7164",
"s 	c #595752",
"t 	c #848580",
"u 	c #848481",
"v 	c #7F807B",
"w 	c #817F80",
"x 	c #747379",
"y 	c #727A65",
"z 	c #888782",
"A 	c #7B7D78",
"B 	c #827E7D",
"C 	c #5A5D4C",
"D 	c #555B45",
"E 	c #59564F",
"F 	c #FFFFFF",
"G 	c #88847C",
"H 	c #8A8981",
"I 	c #817C76",
"J 	c #C9C9C8",
"K 	c #C9C8C6",
"L 	c #82837E",
"M 	c #7D7C78",
"N 	c #CFCECC",
"O 	c #CDCCCB",
"P 	c #CCCBCA",
"Q 	c #CBCAC8",
"R 	c #CECDCB",
"S 	c #CDCDCB",
"T 	c #5E6353",
"U 	c #C9C9C6",
"V 	c #CDCCCA",
"W 	c #CBCAC9",
"X 	c #C5C6C3",
"Y 	c #C6C7C3",
"Z 	c #61634E",
"` 	c #B0B0AD",
" .	c #F9F9F9",
"..	c #76796C",
"+.	c #55554E",
"@.	c #6A7857",
"#.	c #C4C4C3",
"$.	c #F8F8F7",
"%.	c #F4F3F3",
"&.	c #7B7C74",
"*.	c #C8C7C6",
"=.	c #C7C7C5",
"-.	c #CBCBC8",
";.	c #A5A4A1",
">.	c #ECECEB",
",.	c #D5D5D4",
"'.	c #EDECEC",
").	c #C7C6C5",
"!.	c #EDEDEC",
"~.	c #989894",
"{.	c #C8C8C7",
"].	c #D3D3D2",
"^.	c #C6C6C4",
"/.	c #C6C6C5",
"(.	c #CCCCCA",
"_.	c #FAFAFA",
":.	c #ECECEC",
"<.	c #A2A19F",
"[.	c #BCBCBA",
"}.	c #F3F3F3",
"|.	c #A5A39F",
"1.	c #7F7E7A",
"2.	c #A0A09D",
"3.	c #979693",
"4.	c #979696",
"5.	c #C4C3C2",
"6.	c #6F7865",
"7.	c #959593",
"8.	c #EBEAEA",
"9.	c #6B715C",
"0.	c #51573D",
"a.	c #CECDCC",
"b.	c #696768",
"c.	c #E7E6E6",
"d.	c #E8E8E7",
"e.	c #C5C5C4",
"f.	c #615F60",
"g.	c #878883",
"h.	c #949491",
"i.	c #C5C4C4",
"j.	c #E4E4E4",
"k.	c #E5E5E4",
"l.	c #6F7170",
"m.	c #898582",
"n.	c #C3C3C2",
"o.	c #C7C6C7",
"p.	c #858482",
"q.	c #A3A19D",
"r.	c #565651",
"s.	c #A5A4A0",
"t.	c #9C9C98",
"u.	c #A09E9C",
"v.	c #92918F",
"w.	c #F0F0EF",
"x.	c #BBBBB8",
"y.	c #A2A29F",
"z.	c #9FA19B",
"A.	c #EBECEA",
"B.	c #EDEDED",
"C.	c #EBEBEA",
"D.	c #CACBC9",
"E.	c #CDCDCC",
"F.	c #CCCDCB",
"G.	c #CCCCCB",
"H.	c #C8C9C6",
"I.	c #EAEAEA",
"J.	c #A7A8A2",
"K.	c #A4A4A1",
"L.	c #959790",
"M.	c #CACAC9",
"N.	c #A2A2A0",
"O.	c #7F8180",
"P.	c #C8C9C7",
"Q.	c #C6C7C6",
"R.	c #837E78",
"S.	c #CBCBCB",
"T.	c #91908D",
"U.	c #CCCCCC",
"V.	c #EBEBEB",
"W.	c #575852",
"X.	c #7E8074",
"Y.	c #ECEBEB",
"Z.	c #F5F5F5",
"`.	c #999997",
" +	c #969794",
".+	c #A6A6A4",
"++	c #A1A1A1",
"@+	c #A1A29F",
"#+	c #9E9F9C",
"$+	c #A09E99",
"%+	c #A6A49E",
"&+	c #A5A29E",
"*+	c #A2A09D",
"=+	c #93918E",
"-+	c #A1A09A",
";+	c #A2A49D",
">+	c #9EA098",
",+	c #7D7E81",
"'+	c #67686A",
")+	c #767779",
"  . + @ # .   $ % . $ & * = # - # - ; > . , ' # , * ) ! ~ { { { * ] ^ > * { - / ( _ ; : < ~ * [ } | 1 ^ * ~ 2 ! ) 3 3 * . . ( . ",
".     4 { @   % $ $ 5 . 4 3 ' - * # # @ > ' 4 - 6   { ~ ~ # * # 7 * # ~ ) 2 3 # < 8 8 9 0 a b c } ] ^ * { ) ! 2 3 4 # < _ & $ _ ",
"# # { # { 4 4 * -   . - = # - @   * # # 4 ~ @ / % ] d e f ~ g # h 7 7 ~ e * * g i j j k j l m n * o * ~ ! ! 2 ~ 3 4 4 = < -   - ",
"2 # 4 -   * * ' = = = 3 ~ # @ @   > - 4 3 3 . $ ] p > g ) ~ # g o o | e # ] ] ^ 1 < 3 q r o o d ~ e e ! s ! ~ 3 = < = 3 3 3 # ~ ",
"~   . $ p . 6 > = b ! b ~ # * * @   - > # 3 ; . 6 t 6 @ { ~ * ^ ] u ] # 7 ^ v ^ [ w 7 ~ d } [ x ~ ) # 4 ~ ) { 3 = = 2 b 4 * # ~ ",
"~   $ $ % . p > y b 2 b 3 = # { -   -   4 # * - 6 z ] ^ * # d t A ^ ] c # ^ ^ 1 B % { g   , t d e { @ , # ~ 3 = = = 3 4 ; . . - ",
"~ * $ $ $ . 6 @ = b b = = = # { 4   - ' * @ - # @ p ] ] 1 # # | ] | d # e * d * d d e d @   d { # * . , - { ~ 3 # @   . . . .   ",
"{ 4 > . , > > * C D b = # # < * ~ 4 * 4 . p   { { > , ] ] g e g g ~ ~ ~ ~ # e f e ~ f | | ^ g ~ d ,     . 4 2 2 {   $ $ & $ $   ",
"~ 3 4 = ~ # = ~ E ~ ~ { # * - - b = = * . % B @ ~ # @ , | # ~ ~ { f 7 o - d # ~ ~ ) ~ { * * { ' ^ |   | # 3 # # { 4 > % , >   * ",
") ~ 4 # { 4 # # ! ~ # * < * * * - - 4 * - > % 6 * # { # # 7 g | @ g g v 6 v d # - d d g { ) ) * ^ @ * ' 3 4   _ # #   . - * # 3 ",
"{ * . 6 > >     4 2 3 4 F F F F F F F F F F F F F F F F F F F F F F F F F F F F F F F F F F F F F F F F F F F G   3 # # # -   @ ",
"# * % H 6 6 > I ' ~ ' @ J K 4   . .   - { 2 ~ # ~ ! ! # , t L ] ] o 7 ^ t ] d e   , M , ] * ~ { 4 { { ' . N O _ . 3 # * @ $ $ 6 ",
"' * $ p 6 6     # 3 > $ P Q # 4 - @   6 @ 3 2 ! ! b 3 # @ ] L ] ] o e 1 t v d e   , , ,   # # >   3 # I , R N - * 3 * $ % p $ $ ",
"' *   > > > @ @ # 4 > . S N * ) ~ #   p   3 2 ! T ~ # # * ^ L ] , * # | ,   * e * @   ^ - # * + $ @ # * . P U - * # * , p $ % p ",
"3 3 4 4 # ' # 3 ~ '   @ P V * ~ s ~ 4 - # ! ! ) ~ { # # * o | d # ! ! { { { ~ f 3 n ~ ~ ~ 3 @ % . 5 4 ~ - Q K @ . - 4   $ @ - 4 ",
"~ 3 * * * * { ) ~ # ' * P W # s b ~ b ~ ~ ! ! ) ~ # * # { ~ ~ ~ # ! ! # e # { { T ! D s 2 # I I . _ - 3 b Q N $ 6 . { ' - { # 3 ",
"* @ H 6 6 6 - * @ - # # X Y Z C ~ ~ # b b = ~ ) ~ # * # { ~ - ^ > { `  .]   , , ..q +.! b b 3 = @.i i ..* K N > 6 - # 4 * - d | ",
"* @ p 6 6 6 * # > 6 / < #.X D C { # { 3 < - ~ 2 # # # { { @ 6 6 > g $.%.% ^ 6 . &.~ s ) 3 3 ~ b D D r > _ *.Q < ~ 3 4 > % % ^ ^ ",
"# - 6 6 6 > * # > .   # =.-.= = { 3 # < > $ * ~ ~ ~ * # ~ ^ ] ] ;.>.,.'.> > 6 $ ; ~ ! ) { # ~ ) D C > _ . U ).3 { { '   ( . > 6 ",
"# * , , ,   ' # . + $ * Q R   - # 3 * . 6 . * ) ! # ,   # d ^ O !.~.*.{.g * - - 3 s ! ~ # ' { # # # @ ( . Q X b # ' * I ( > > 6 ",
"{ * d d d * # e 4 @ - # P W ,   { 4 @ $ 6 * # { ' | % ] * ].F J ~ ! ^./.~ ! s ! T C b n # # # @ , * {   $ (.).b # # # * - * * * ",
"~ # # ~ e ~ f ! ~ 3 ~ ~ J *.  4 ~ . >     # ~ #   , ^ d *._.# # ~ ~ :.<.d # ~ * < r = b b n * p ,   # #   V Q ~ = = 2 2 ~ ~ e ~ ",
"o > o * d o * ~ * > > - *.^.{ ~ 3 / . * 4 { { 7 * @ [.}.7 # * d # ~ :.|.  * # ^ 6 > < ! q ~ #   | p | { { Q Q ) l i a b { { g ~ ",
"| v | @ v 6 d ~ | 6 > > Q W { ! ! # - 4 ~ * L c f e 1.2.e ] ^ ^ - 3.>.] ] d # |   , * ! s ~ ~ { * ^ > - ~ ).^.~ a i b 3 { ' d # ",
"| | 1 ^ ^ ] c e ^ , % , W O ' ~ b n n n c ^ ^ d 2 s 2 ~ * ] ^ ^ | 4.>.B M g { &..   < ! ! ~ ~ ~ b # @ | ~ 5.*.> 6.l j i # g g # ",
"| ^ ^ ^ ^ v g ~ ^ ] 6 , O O # # / ..n ~ c v @ 7 2 E ! ~ ' , ^   | 7.8.e { { 9.y -   4 ! 2 # ~ 3 * * { ~ ~ J S > ..i 0.a # * * # ",
"| ^ 1 | | ^ g { ^ t , ^ O W {   , p | { ~ e ~ 2 ! ! 3 { # * g # 7 /.{.* # n m l ~ { ! +.2 # ~ # p   # { @ a.N   6 ..C b # g @ # ",
"b.g g # # * # e | ] , > W ).{ , , % ] | # ! s ! 2 ~ # # # # e f # c.d.6 ..3 m 9.* * ~ +.~ ~ ~ - + - ~ # , S (.> B 6 # ~ e g * # ",
"f e ~ f ) { f f e # ' * *./.* % z , , , * f s ~ { { # # * @ @ # # V O   > g ~ 1 v ^ g f - # # # # { ) { > S V , } B @ ) 7 d g { ",
"7 * c g g ' ~ e g e ~ ~ e.^.d > B z % ' ~ ~ ~ f e g * d   % % - ~ F     u ' f.| A ^ c e v ^ * ! s * * # ' W O 6 u B | ~ f g e ~ ",
"o v ] v , ^ g ' g.^ * # ^.5.e e @ %   ~ e | @ ~ ) * ^ ] , , , * h.>.| > , # ) o } ^ { # | ^ * ~ { ^ ^ g ~ ^.J v ^ d * e e # e f ",
"o v ] ] ] ^ g * t t p ^ J i.~ ~ ~ { { # d ^ ^ - ! '   ] , , , * j.k.# * c ~ E 3 e 7 f d > | 7 ~ | v v ^ * e.).| - e e d ] p d ) ",
"l.o t | } ^ { * u m.u z *./.o d { ~ ! * % B B B g ~ * ^ - ' { ) n.^.{ ~ ~ +.~ # # # ! ~ ~ e ! ! g ^ v } } o.i.~ ) ! | t ^ v ] e ",
"7 o p.} } @ e d u ,   > *.J ] t | ' ~ e * | ] p d ~ f ~ ~ ~ ! ! :.q.1 @ * ~ * v ^ ^ - * ~ r.! ~ f c ] ] ^ {.e.e # ~ # ] L p.} 7 ",
"7 o | d * # ~ *   ^ ^ - /.J ^ B p ] g ) ~ < ; < ~ ~ ! s ! ~ ~ e :.s.6 p > ~ c > ^ ^ 1 1 # f * 1 e ~ * &...)./.| ^ * 7 A ] ] o g ",
"f e ~ f ! f f e 7 g * { ^.O , 6 u | # ~ T b n m h.t.u.3.v.^.*.~.w.x.v L @ ~ * v v ] v ^ e h | ^ ^ # T n n ).J p.t } e c u ] o g ",
"g d * g ~ g | * # ~ ~ ! ^.P   6 t g e @ &.y.z.A.:.B.B.:.C.^.*.C.F !.B.F F C.*.:.D.E.F.G.h 7 v L u o ! q T H.E.v ^ ] # ~ * g # ! ",
"  % ] @ ~ * %   ^ * * { I.h.~ # # ~ # ^ L J.K.L.^ ^ ] ^ # ~ # g { > s.6 d 7.e.~.J M.J J f * L L ] d ! ! ~ *.E.] v ^ g f e ~ e r.",
"  + % d ) * ^ , B ^ , * I.h.~ ~ s ~ d ] u L 1 3 g ^ ] ^ g f ~ { ~ # # # e f +.e e f f f s d ] ] | e ! ~ 7 *.J ] v g ~ { - $   ~ ",
"#     - { @ @ 6 , B , # I.u.o ~ ! 3 d u u u u d h o o g e s s ! g - @ > ^ d ~ o 1 c ' ) +.~ # c g ! f e g J /.d # ~ 4 $ I ( - 3 ",
"~ - @ - ~ - d @ ^ ^ d ~ >.N.^ o { h ~ d u ] v O.g ~ e # d d ~ ! } ] u u ] o ~ | v ^ ^ ~ { * ~ ~ s r.h # 7 P.H.T ~ ~ > 5 5 .   # ",
") ~ 3 3 E ~ e 7 # g e ~ !.;.1 L - ~ r.~ g A v o e ~ * ^ v L o h o ^ u u L | e | t ] | ~ - p . - e ~ ~ g # Q.Q.# ^ # 4 . R.  * # ",
"! ! ! # ~ # 7 b.~ ~ ~ ~ >.q.L ^ @ s s h ! 7 * e ~ d ] t t L o ~ d } u u L o ~ @ A 1 c e 1 + + . ^ * e # g J J A ^ d # - * 4 ~ ! ",
") ~ { | d d d d ~ { @ - C.3.@ d ~ ! ! { ~ ! ! ~ - t ] ^ L v d ~ * } v v ^ d e @ ] | # # > . & 5 z * ~ ~ 7 S.E.u ^ | ~ ~ ~ ! ! ! ",
"e { { @ @ @ | o { - . 6 >.T.~ ~ E ~ ! ~ * ~ s # p ] v u ] ] | ! ! 7 7 b.# 7 f e c # ~ * % % 5 G $ * 3 { e M.U.| | * f ~ ' s ! ~ ",
"~ { { d ^ ] u | { - > $ V.h.{ ! +.! ~ 3 e { # g 1 ^ L g.] d g f W.h ~ 7 7 e f ! ! = ~ 4 > / . . @ < ; X.# ).*.g e g *   % { 2 ! ",
"~ { e * |   ] d ~ @ p $ F F F F F F F F F F F F F :.!.:.V.V.C.V.:.:.:.B.!.!.>.V.>.!.:.>.Y.Y.Y.:.V.:.!.!.>.Z.Z.~ # | 6 % % * ) ! ",
"~ 3 ) ~ e ~ # ~ ! * 4 * { - t p > { ! f g ^ u | e h.`. +T.7.t.N..+++@+.+N.;.#+h.$+%+&+%+*+t.=+h.t.;.q.-+;+>+h.~ v v > ] 6 * ! ! ",
"! ~ # * * * # ~ e # e ! ~ ^ % ] 6 d ~ e 1 ] v u | ! ! e f g O.} 6 | O.,+u , * # > % , . .   - # # / X.; X.> * ~ * ^ ] > * ~ ! ! ",
"~ * , ] ,   * e , , @ * ~ ' d ] 1 g ! * t ^ ] A g f e * '+7 o O.A | ,+,+^ 1 * g 6 . . $ R.. & @ 3 < < &.&...# f e * * { { * @ @ ",
"~ #   | d d g # | ] ] > ~ * { e # ~ h * | ^ } g h 7 o v d e g u ,+,+,+^ X.&.* * ^   . 5 $ . . # s ~ # @ @ c g # ~ e # d ^ , , ^ ",
"e #     @ d { #   ] 6 @ { 6 > * ! ~ ' e e o * ~ e o } } | b.7 o } )+d c < # ~ e , 6 . . . &   3 e e ~ e # * | ] g ~ 7 ^ H t ] 6 ",
"3 ~ * < * c 3 # ,     * # > $ - ~ * , # f e f f o O.} | } d e e '+b.~ T C D q ! g d * ; $ . * # | d ~ f * ^ ] } 1 g # | ] ]   - ",
"! ! ~ b b b ! 3 * ' - 4 - $ 6 # g ^ ,   # r.f ~ | } u } | b.~ e # c c 3 C C n c e { ~ 4 @ ' # d ^ ^ g e * v } o ^ g e g * # ~ ) ",
"2 # ; ; - # b ! ! ~ 3 2 {   @ { d , ^ ^ # ! g g g d ^ | 7 ~ # * o v 6 o 3 = v p.^ d # ~ ! ) d t ] ] @ # ~ # | A * e f ! ! s ! ~ ",
") @ t t 6 v &.# 3 4 * * { # e 7 | ^ ] * f g ] d e # * e r.e A ^ ^ ] B d ~ # p.[ t ]   # +.! @ | t ^ , | ~ h * b.# * # ! ! ) ~ e ",
"{ * 6 p 6 $ . ' # 6       ' # 2 ~ * * ~ # o ] o * e ! e 7 e d , v ^ 6 | ~ g } u ] ^ d ~ +.+.~ ' ^   ^ ^ e ! g g 1 | d h r.) e { ",
"e * 6 6 6 p 6 { # , , $ $   - # ! s ! ~ | ] u } o f e d d # # | A } ] | e * ^ u , ^ g ! s ~ ) ! #   d ~ ) g ] ] ] ] 1 ~ r.f e # ",
"{ * $ $ & $ . 3 ' . > . . . %   3 ! ! { ^ ] } ^ * e * ^ | c ~ * u % ^ * ~ # * | 6 % # E ! ~ ~ ~ ) # e f e d ] % ^ v ^ # s f e g ",
"# #   > _ - - 3 @ . . .       4 3 * - g * | M @ 7 g ^ ^ ^ | e ~ d * # ~ ) ! ~ # # 4 ~ ! ) 3 { # ~ f e ' g ' | | ^ ^ ^ g f ! ~ { ",
"~ 2 3 3 ~ ~ 3 2 4 * @ . 6 . - ~ # . $ * e # g g g | v ] ] | 7 r.~ ~ ~ # # ! ~ 4 4 3 2 2 ~ # g # ~ e d   ' # * | ] ^ d # ) ! ~ ~ ",
"* * * = b 4 ; * # # # ' * * * #   6 .   * # ~ ~ | ] ] ] | e ~ e ' * d A @ ~ * $ . - 4 = ~ { g # # d ^ ^ ^ g ~ * @ ' { { ~ ~ 4 * ",
", + $ - 3   + $ I @ ' # { ~ ~ # 6 ,   % ]   # { * M ^ d e ! ~ d } } ^ v o ~ - % . & &   4 ~ ~ # | | ^ ] t d ! f ~ ) ! # * * I , ",
", + $ $ 4   $ $ R.( ,   - 3 ~ # , p , , 6 p - ~ f g d ~ ! e ~ * } } } } o {   . R.& . . ; ~ e ] ] ^ ] , ^ | ~ +.! ! ~ @ $ . ( I "};
