/* XPM */
static char *_623cb4aedeb4c4ee4c8d3c183c3ec62dwTuCDwdK94LGBRz[] = {
/* columns rows colors chars-per-pixel */
"64 64 199 2 ",
"   c #0C5563",
".  c #075C63",
"X  c #0C5C66",
"o  c #0E5D6A",
"O  c #115563",
"+  c #125C66",
"@  c #185A66",
"#  c #12576A",
"$  c #135D6B",
"%  c #1A5D6C",
"&  c #125F71",
"*  c #1A5F72",
"=  c #0D6166",
"-  c #07666A",
";  c #0D636B",
":  c #0C686E",
">  c #126067",
",  c #14636D",
"<  c #1A636E",
"1  c #13696F",
"2  c #196A6E",
"3  c #0F6572",
"4  c #0E6B71",
"5  c #156471",
"6  c #1B6573",
"7  c #156B73",
"8  c #1B6B75",
"9  c #1B6678",
"0  c #166D79",
"q  c #1C6D79",
"w  c #0E7576",
"e  c #157276",
"r  c #1B7176",
"t  c #157379",
"y  c #1C737B",
"u  c #177A7D",
"i  c #1D7A7E",
"p  c #21606F",
"a  c #226574",
"s  c #226B76",
"d  c #226679",
"f  c #236C7B",
"g  c #2A6E7D",
"h  c #207177",
"j  c #23737C",
"k  c #29727E",
"l  c #23797E",
"z  c #1F7382",
"x  c #1C7C82",
"c  c #246F81",
"v  c #2E6F81",
"b  c #247581",
"n  c #2A7582",
"m  c #247C83",
"M  c #2B7B84",
"N  c #2C7588",
"B  c #267E88",
"V  c #2C7D89",
"C  c #307386",
"Z  c #327A86",
"A  c #327E8B",
"S  c #397D8A",
"D  c #1F8184",
"F  c #1D8989",
"G  c #248185",
"H  c #2A8186",
"J  c #26838A",
"K  c #2C838B",
"L  c #25898B",
"P  c #2C898D",
"I  c #318087",
"U  c #32848D",
"Y  c #39848E",
"T  c #328A8E",
"R  c #3A8A8F",
"E  c #29908F",
"W  c #2E8690",
"Q  c #268D91",
"!  c #2D8B91",
"~  c #2E8F98",
"^  c #348591",
"/  c #3A8693",
"(  c #348C93",
")  c #3A8C94",
"_  c #368E98",
"`  c #3C8E99",
"'  c #259493",
"]  c #2D9196",
"[  c #2E9399",
"{  c #2E9C99",
"}  c #349295",
"|  c #3A9296",
" . c #35949A",
".. c #3C949B",
"X. c #36999C",
"o. c #3C9A9D",
"O. c #39A09F",
"+. c #3D97A1",
"@. c #3698A1",
"#. c #3D9BA1",
"$. c #36A1A2",
"%. c #3DA2A4",
"&. c #3AA8A7",
"*. c #3DA6A9",
"=. c #3CA8AA",
"-. c #418694",
";. c #418893",
":. c #428E9A",
">. c #42949C",
",. c #4A939C",
"<. c #429A9E",
"1. c #49989D",
"2. c #4496A1",
"3. c #4C96A3",
"4. c #449BA4",
"5. c #409FA5",
"6. c #429FA6",
"7. c #439CA3",
"8. c #4A9BA3",
"9. c #4B9EAA",
"0. c #509DA5",
"q. c #509EA9",
"w. c #42A1A6",
"e. c #43A2A5",
"r. c #4AA1A6",
"t. c #44A8A7",
"y. c #47A0A8",
"u. c #46A4AA",
"i. c #49A4A9",
"p. c #4EA7AF",
"a. c #4CA4AB",
"s. c #41AFAE",
"d. c #46AAAD",
"f. c #48A9AF",
"g. c #49A8AC",
"h. c #4CAAAD",
"j. c #50A7AE",
"k. c #52A5AD",
"l. c #59A6AF",
"z. c #50A9AF",
"x. c #51AAAE",
"c. c #58ABAF",
"v. c #40B3AE",
"b. c #46AEB1",
"n. c #4EABB0",
"m. c #48AEB2",
"M. c #4FACB1",
"N. c #4DACB1",
"B. c #53A6B0",
"V. c #50A9B1",
"C. c #53ACB2",
"Z. c #59ACB4",
"A. c #5BACB4",
"S. c #4BB5B3",
"D. c #4EB3B4",
"F. c #4EB8B6",
"G. c #4EB4B9",
"H. c #53B2B5",
"J. c #58B1B5",
"K. c #5BB2B7",
"L. c #51B8B7",
"P. c #52B3B9",
"I. c #54B1B8",
"U. c #56B7BE",
"Y. c #5CB5BB",
"T. c #55BABA",
"R. c #58BABB",
"E. c #5BB8BD",
"W. c #5CBBBD",
"Q. c #60AEBA",
"!. c #62B6BD",
"~. c #64B9BC",
"^. c #60B8BA",
"/. c #68B9BD",
"(. c #53C1BE",
"). c #5DBDC1",
"_. c #63B7C1",
"`. c #66BBC2",
"'. c #63BCC2",
"]. c #69BDC4",
"[. c #6DBDC8",
"{. c #5DC1C1",
"}. c #66C1C4",
"|. c #68C0C4",
" X c #6AC2C7",
".X c #67C0C8",
"XX c #6FC7C9",
"oX c #6BC4CB",
"OX c #6BC8CD",
"+X c #71C4CC",
"@X c #72CACE",
"#X c #73CCD0",
"$X c #73CAD2",
"%X c #78CDD0",
"&X c #68D9D7",
"*X c #75D0D5",
"=X c #79D2D6",
"-X c #77D6DA",
";X c #75D9DA",
/* pixels */
"+ 8 6 8 Z.H 7 y K 7 r j.P t F &Xv.(.X.K M >.q  .: Q m.#.x 6.o.y M M j j M 8 o V V 5 5 f 8 y x =.' { y m $ d f 6 q U `.| = ~.l = ",
"j < , 8 8 2.( P y | U 7 M.} %.F.F.S.R.( ^ j 8 H e w.b.P.6.I.K y q V ) T M 8 6 6 ^ b $ f q m #.$.s.$.x b $ n 9 $ , 7 y  XXX%XU j ",
"q j f % + b ! X.K U ( H 7 K ^ j G P #.E.( t 7 U 2.K e p.z.>.^ q s U y > q 6 b V V ( ; y y 6.] L ] #.2.6 % d d d 8 , = T #XK.H 7 ",
"0 q k f 6 T n.} 1 X 8 >.U V n + j m 0 w.g.t : ` ^ q j q j M j s 2 A K . ^ ` k V ) B 0 4 0 } g.@.X.! M 6 d 9 a f K j y m <.K P t ",
"0 q f 8 q V.J 7 7 X + n U f s f M K G t ] %. .y.8 8 = 8 j q 8 > + 6 U b 4.^ n j y ( P 4 y i.i y b ` V   9 d 9 V >.| ^ | K 7 m ~ ",
"z 7 8 8 p.X.t | 7.8 $ % < $ f V ` ..m K L L y i.7.K U ) j f q 8 j U o.| P a.` V B y Q x e j.7 y y b f # # 6 6 M M U | | V 7 _ ( ",
"X 7 ) ..6.U.L G +.>.< +     6 ^ o.G +.B J K y | a.K ^ j 8 s < M ) ..J t m K ) U P ! m m r 2.2 q 9 b q N c k , 8 K K X 7 b b _ q ",
"V k.H 7 B i X.Q G 7.U 8 O d q B w. .| ` V 8 o b ! ( l 7 2 s s 8 U | e e H M 5 K '.y.x b , 8.j 8 9 z b f q , V 7 ^ K T I j V V b ",
"6 $ X o j B e X.] x 7.2./ k X U M.#.) V @ @ $ n >.^ ^ M > < k < 8 ..U y 8 V 7 = e.( ..M > ,.Y 2 9 q 9 $ 5 ; m H r.r.` ) q 5 q z ",
"6 5 6 5 8 q B e @.~ H m 8 < 8 ( G x m 6 % O % n :.) K ^ j 8 < 8 2 j 2.I 8 j M 7 G ! ( | >.l.8.> 9 V V b 6 5 o 7.OX<.i.^ q b 0 0 ",
"6 9 d 6 < q 8 j y K b U b 7 K 0 y i | 2     % a Z / U M T M > s s s k.U Z 8 j B y ( b b ` >.C.K ^ 9 c 9 q q m _.Y.m ( ( K q 0 0 ",
"f 6 * 9 6 o 6 6 j j < < B.C...J : t 7.b X + 9 $ $ n V K >.M I Y Z ;.f < f k V l e i K 8 X 7 i.V.` $ $ 6 # 6 6 7 ! } t K _ ( 0 0 ",
"9 f d 6 d k q , 8   6 / V y n.u m t ( ( m 1 8 6 + 8 M K U U >.j k s < 8 q f b b y 0 ( j 5 = y i.K 6 X 6 9 $ < 7 ; m J 0 H a.W 3 ",
"$ f n V V V 0 ..V M ) j + 6 H e.i o.| y 6.7.q b q , b b T M 8 s + < j H U j K j l K a.^ M 7 o ( 0 m 6 $ f 9 6 q J  .J B H ) ^ 5 ",
"d f f b V ^ 6. .] %.H , 6 a , M } <.<.( 2.j.^ b 7 b V U f < n a < h K } P i j >.>.I | K 6 8 b V H W , $ * C / >.P ( C.6.^ q f n ",
"$ 9 b B y x %.G.&.' i j s a s + 1 | r r , T 2.y 0 r.k Z < < % a k j 7.%.t.x ^ ^ q > k M k 6 < 8 H ( j 6 6 9 ^ , = ( ( = o $ 6 6 ",
", K B 0 x d.] } ).X.J M V s < + b M 2 y 5 y C.Y.j.j.l.M j $ % p a f H #.L #.| 8 $ $ N 9 9 n s 8 m W A o 8 k b K 7 j.6.H ^ q 6 * ",
"7.a.| m f.%.w u  .+...V j 6 5 8 K y , = j 7 = P @XC.r.c.M j O % a d y #.] L 6.^ $ % Z f 5 5 6 < b V n n :./ K a.M p.( B y j 9 n ",
"..oX).%.%.g.d.] x B ..^ 7 , q 8.G } P H y , X X H ].P h.z.U j < % % 5 P u.4 b _.s f 6 U ) i.| K K b 7 k U < k 9.( ( n.H K j f d ",
"8 <.).R.! J } h.y 4 ; V m q ^ b i.g.| P , 8 6 8 8 l }.7.<.K.j + 6 < ) oXu. .e K Q.5 8 j.H 7 y K K y 8 8 V 8 8 2.h.4 6.b V A f q ",
"8 7 | L.W.i.M.! K 7 q 5 ; M 6 f ) J.M.i q 8 f f < > 1 J.m T 2.( 7.j.) 8 8 j M j K.h.e 7.x 7 : , j U , 8 U 8 2 <.i.m B 7 8 b U j ",
"j b ( M.u.C.} } ..U 0 7 b y k < ) >.'.o.B I k % + X | H r r H V. ...K j 8 8 I ) >.V.e.X.P K 8 q , j I ^ 7.g.C.e.p.| ( 7 5 b b m ",
"j b  .g. .x y 8 2 8.( G y b < / +   K .X| b 6 $ , I 1.= 1 H ) H e ( ^ M q f 2 7 8 y B 6.V.9.I j j 8 7 m h.f.%.M.<.( K K V K y b ",
"7.( m J L m <   $ k z.} b 7 I A , + j B K.^ , X H @Xl H ( K 8 y T B y M / q 2 5 r M l K >.l ) K M j 8 y L t.w t.P H 7 , 0 K | ( ",
"} G x i u.0 < a a s y V.( K Y.b s , 8 = b 6.B K r.o.R.%.P H b j j I j 6 T U M k q j 8 y >.8 K ^ K R 2 1 i } O.D.t K 7.} w.( ( ( ",
"i } Q #.n.5 $ d g < 7 t ).OXP y j M < > 5 0 7 ( : i ).D.e.( | V j f f f q ) >.k j k V ) 8.y 7 y T b ( m i H.o.T.} P G !  .m y 0 ",
"0 7 L X.Y.2.q f M 6 , b ! G j 2 s k < 6 8 0 H H : r K z.~.i.T q s M M y 7 b ) j f s 6 n < > 8 7 M 8.H P h.W.o.R.-XI.! G G P x t ",
"y 7 4 x K k.) 8 j b y ( t i.2 2 8 2 Z V 5 q K 0 , < > 2 K...b j < 8 j b 1 j q n 3.A 6 j 8 2 8 ) 1.Y ^.h.| | T l #.#.n.} b P ] x ",
"b b 0 y q M B.C.y y K | P 7.X , + 6 6 6 q 8 7 ( X < < a l.8 J G ( T m 1 l l q , Z >.>.8 2 h s ,.s 8 l i.C.T 7 , | H K 6.+.x ] Q ",
"` H y b 7 U U = <.i m .XC.7.K.U + + $ $ f 8 ( !.>.> s a Z n e J ..| ( T l M 8 < ) ^ H <.r r 8 ;.< > h h | 2., y B m y H ..P x X.",
"N.Q B V 7 V >.$ + 1.C.J.| r G 7.K <   X f k ` ( ~.R X s k < X.} < Y ^.r.T T 8 q U >.H i e.} M >.8 2 < 8 s R M q q M y y ! P i  .",
"} a.( y q b Z / + X 7 r., m - ! 7.K 7 b d A U 8 K }.r.q 8 V 6.; + + 8 K.r.m r 2 U m x.( 7 G ( Y.h.r.R j 8 < 8.q m . ( x u +.G 2.",
"j j j j H 5 X V A 5 < q 7 y x u.} X.x M $ d g < 8 B  X..= ].y , > 8 , 7 A.I 2 l H 7 7 C.! e L ;Xd.{.| ^ I >.y | ; } D.%.i 7.2.j ",
"j I ) ) j 7 6 6 ^ j $ q 8 B #.#.b.%.x y $ g 6 $ > 7 y '.@X=XK j j 6 2 2 < 8.R T i | K : p.X.w.D.T.L.E.P T r 7 H e w.d.L.7.C.I q ",
"8 Z s , y 7 n A m ( o j y y.] L [ %.7.6 $ a a g 6 2 = T *XC.K 7 q k s < , j ( <.K K ) H 7 ^ K y G P X.W.( t : ( 6.H r V.V.>.^ j ",
", M I . ) ` k V ( B 0 7 0  .b.#.X.P b 6 6 6 9 f A k j H 7.G ( y 7 q k s 5 ^ V.} 7 X q >.U A n , i x u #.g.i : ( ( 7 q 8 b H y 0 ",
", 8 U b 2.^ n j y  .W 7 y a.i y m ) V $ 6 q 8 M >.>.U | ( 7 b ) 5 f 8 q y p.! 4 ; + % Z Y f f 8 H P x i ~ w.( a.q 8 < q k j 8 , ",
"y K ..| K k.:.V B e W b 0 p.7 y y b c   5 5 5 M M U | | B 7 ` ` b , 8 0 n.X.t X.4.q @ % % $ b M }  .G G P P b i.>.I / / q 8 8 8 ",
"( | K r V V / V H P B b y >.2 q 6 c q b N b + 6 U K = 8 y b | y X 9 ` +.#.U.Q m 7.| $ @ #   5 ^ #.G +.P B K y ` C.^ U j f j 8 M ",
"K | 0 r V V 6 U .Xw.m b 7 8.j 8 9 f b b 9 6 A 8 ^ K U H b m B y ^ 9.V 7 B x X.Q G +.) 6   s q H 7. .( | m 5 , b U ^ b 7 2 6 f s ",
"8 | K y 8 I 8 ; 6.( X.J = >./ 5 6 6 9 o & 5 b V a.6.) ..7 5 y y 5 & o ; q V e @.] x +.2./ k + U C.7.( V + $ X n 2.( ! b , 5 f a ",
"6 q 9.U 8 k n 8 ( ! ( +.>.A.k., 6 A A b 9 9 o 2.$X7.p.P b y 7 9 9 6 5 5 f 9 V 0 X.Q ! B 8 5 6 ) G i m 8 +   < n ` ( H ( j q < 6 ",
"6 j q.U Z 8 V j y ( b i ) | C.U / q f 9 q q B _.C.H P ( P b 9 9 9 9 d * * d f j q W y U b 5 ^ q r i | 2     < q M U K V ^ M > s ",
"S -.s 2 j k M b y b K 0 : 8 r.V.` o 6 * o 6 5 7 K  .t ! _ ( q 6 c 6 9 d % $ 6 8 b j 6 5 B.C.| b : y 7.j X + 8 > , b M K >.M A Y ",
"g s 8 8 6 k b l y 7 ( y , > b 6.W 5 + 6 6 $ + 8 8 j K e K 6./ 5 5 c 9 d d q 8 5 8   6 U M z C.x b t ( ^ b 2 8 5 o 5 V I I T >.j ",
"@ < q M U y M j j U a.^ n 6 o ( 0 m 6 $ d 6 6 f M | B B B ` / 5 & f n N V V y X.M A / n o , K 6.b ..| y 9.2.j b 8 , M M T M 8 s ",
"8 q ( ( K H t 7...T ) n s d f V K U , $ % n -.:.H | K.7.^ f c f f f n q B ! #.] ] #.K , 6 d $ V } 7.7.( 2.j.T j 8 b M T j , k s ",
"j j o.w.y.i ( ( 8 > k M f 6 < 8 U ^ b < $ d S < = ! ! ; , $ 6 9 # 9 j K y x %.G.*.] y j f d d o 7 | y y 7 T >.y 8 a.j M 2 6 < s ",
"s f H 6.J #.| 8 + , k 8 8 k f 9 n / A , 6 k M K 7 p.y.K ^ 8 6 5 , V H r i t.[ [ ).X.G m n f $ $ M b 7 8 1 b C.K.a.C.k.V s + @ p ",
"% d q +.( G e.I , < k k + 6 6 < b K j b 2.( M a.B p.| m q f 6 j 9.a.} G t.%.w u  .6.| H j 5 6 6 V y , = y 7 X U $Xi.k.c.M k O % ",
"$ + 7 H i.e i _.8 f 8 ) :.q.` K V b 7 j / > y j.( ( a.K K j d 9 8.[.).o.%.d.b.] x B 2.^ 7 = q 6.m ! P K y X X = H .XH a.k.I s + ",
"< 5 ^ oXr.} 0 K `., 8 q.U 8 y K W q 8 8 V q q <.i.7 6.b M ^ n 9 8 7.'.T.L L  .d.y : 1 M B y U b a.g.| ( , 8 8 8 7 H ].r.<.K.j , ",
"8.B.) q 7 j m l C.p.y r.b 0 = 5 j K 5 8 I r 7 ..h.m b y 7 b U b 6 q o.J.Y.g.n.W W 7 7 : , b d q | C.z.y 8 q q q , . r C.l U 1.) ",
">.| ( j q q I ` 6.h.e.} P ! 0 q > y U ( 7.i.h.e.i.| | 7 ; b b n b b ( h.h.C.( ` ..K 0 1 l j n < ) ..`.>.b I j > 2 X >.V y 8 H z.",
"8 ( ^ m y 8 9 6 q 8 P w.I.6.U j k 8 , m z.C.o.M.7.( H H H V q m z m ( h.} m 8 q 5 7.} G r M + / + X U [.) j 8 > X T ` . 2 M ) H ",
"^ V y B ^ j < 9 f V b P +.b ) V M y r l m e.t t.P G e : 0 K .._ +.( m G L m , X $ b a.} l 7 U M < $ 8 M K.K 7 = K +XK H ) H r y ",
"k V y 0 K U M f s s f j >.7 K ^ U T 7 1 l | o.H.w L %.} +. .( ( _ m x i t.7 6 6 a s y z.T P Y.B q 5 8 o j 2.M H 6.o.W.7.T H l y ",
"k k y 0 e ( ` M g k Z ) 8.j 7 y K H ( m m h.o.R.} L L P  .m y 0 m _ Q #.h.7 6 d v 6 < l }. XP y y b 8 , > y 8 ( 1 B W.J.7.( | m ",
"s j M y 7 l ` s s f s k 2 2 2 2 H 9.H K c.}.o.W.;XH.] D G L x y 7 7 J | Y.2.8 d N 6 8 j T K j 2 q V 5 5 q 8 M V , 8 M V.].i.} 7 ",
"2 q y j 7 j j k 8.U 6 f s 2 2 ) 8.I !.z.| ( ( i e.<.h.} x P ~ m q 7 0 m U l.) q j b r T y r.2 6 6 6 b M 2 8 / 8 < > 2 8 Y.| l i ",
"T ) l 8 j j s 2 V | >.8 2 q j >.j 8 M z.z.P 7 ; } H K r.o.x [ ! t y 0 e 8 b a.C.y y J } P <.X < @ < 6 < 8 q 6 ) + s 6 8 l.8 b K ",
"( ..) R l M < 2 ( ( H 7.7 r 8 R < + h r | r.= y M M j M +.P x @. .B y j 7 U K ; +.y K W.h.e.K.U % % $ o j 8 T !.:.< 6 6 A b y K ",
"8 U Y.r.K ( q 8 U <.G x o.} M >.< q 2 8 h U l h q V y y ( L x  .G.L V M 7 I >., < 2.c.C...1 K 6.A %   + q y 2.( _.) X q M X >.) ",
"X X 7 z.r.m 8 7 K m g.E e i R /.A.0.` j 8 8 8.h j = ) B y 6.J  .~ 6.( j 8 j n / < + 8 1., m : ( 3.U 8 k q H B 0 H _.a.j 8 V 8.+ "
};
